<svg version="1.2" xmlns="http://www.w3.org/2000/svg" viewBox="0 0 750 500" width="750" height="500"><style>.a{fill:#cad5e5}.b{fill:#aebbcc}.c{fill:#f28241}.d{fill:none;stroke:#f28241;stroke-miterlimit:10;stroke-width:2}.e{fill:#2e688c}.f{fill:#1b4e59}.g{fill:#e1e8ef}.h{fill:#f5f5f5}.i{fill:#ffa07f}.j{fill:#cf4a57}.k{fill:#fc5b68}.l{fill:#985551}.m{fill:#fff}.n{fill:#254f79}.o{fill:#456997}.p{fill:#698bb1}.q{fill:#d35c20}.r{fill:#ff7d6f}.s{fill:#ffbf90}.t{fill:#f9c88a}.u{fill:#161818}.v{fill:#ffdd9d}.w{fill:#ffeaac}.x{fill:none}.y{fill:#eeebf2}.z{fill:#b2ccd6}.A{fill:none;stroke:#2e688c;stroke-miterlimit:10;stroke-width:.8}.B{opacity:.7;fill:#cad5e5}.C{fill:#b6c4d6}.D{fill:none;stroke:#1b4e59;stroke-miterlimit:10}.E{fill:none;stroke:#f28241;stroke-miterlimit:10}.F{fill:none;stroke:#2e688c;stroke-miterlimit:10}.G{fill:#3a435e}.H{fill:#ffd39c}.I{fill:#55062c}.J{fill:#3f0727}.K{fill:#6f0a32}.L{fill:#d15d24}.M{fill:#fc9d4f}.N{fill:#763231}.O{fill:#ba131a}.P{fill:#f6ded4}.Q{fill:#606060}.R{fill:#12526b}.S{fill:#313044}.T{fill:#ffb600}.U{fill:#d94562}</style><path class="a" d="m691.9 345.9c-6.4-22.7-20.1-41.9-46.2-39.7-28.4 2.5-58.4 25.6-87.1 12.2-36-16.8-50.2-65.1-56.7-101-6-33.2-10.7-68.4-31-95.3-30.8-41.1-89.7-50-132.2-21.6-38.9 26-56.9 77.1-98.1 99.3-36.5 19.6-79.8 12-118.5 23.2-36.7 10.7-66 40.6-68.7 79.8-3.7 52.4 37.3 99.2 81.6 121.4 34.5 17.4 73 24.7 111.2 30.2 75.2 10.8 151.3 14.9 227.3 12.4 38.3-1.3 76.6-4.3 114.8-8.9 28.1-3.5 67.8-3 90-23.2 12.1-11.1 17.7-27.9 18.4-44.3 0.6-12.9-0.5-29.5-4.8-44.5z"/><path class="b" d="m324.4 91.8c0 14.4 11.6 26.1 26 26.1 14.4 0 26.1-11.7 26.1-26.1 0-14.3-11.7-26-26.1-26v26z"/><path class="c" d="m346 60.7v26.1h-26.1c0-14.4 11.7-26.1 26.1-26.1z"/><path class="b" d="m531 254.8q1.3-2 2.7-4c2.5-3.5 5.4-6.9 9.3-8.7 4-1.9 8.7-2 12.8-0.4 4 1.7 7.3 5.1 8.9 9.2 0.8-5.8 3.5-11.2 7.9-15 4.3-3.8 11-5.2 16-2.3 3.3 1.9 5.4 5.3 6.4 8.9 0.9 3.6 0.8 7.4 0.4 11.1 4.1-0.7 8.2 1 11.2 4 3 2.9 4.8 6.8 6.2 10.8q-2.8 0-5.5 0-7.1 0-14.1 0-9.4 0-18.8 0-9.9 0-19.9 0-8.5 0-17.1 0c-3.9 0-7.7 0-11.6 0-2.1-0.1-0.2-4 0.3-5 1.4-3 3-5.8 4.9-8.6z"/><path class="b" d="m197.5 76.2q1.3-2 2.7-3.9c2.5-3.5 5.4-6.9 9.4-8.8 3.9-1.9 8.7-2 12.7-0.4 4.1 1.7 7.4 5.1 8.9 9.2 0.9-5.7 3.6-11.2 7.9-15 4.4-3.7 11.1-5.1 16.1-2.2 3.2 1.9 5.3 5.3 6.3 8.9 1 3.5 0.9 7.4 0.4 11 4.1-0.7 8.2 1.1 11.2 4 3 2.9 4.9 6.8 6.2 10.8q-2.7 0-5.5 0-7 0-14 0-9.4 0-18.8 0-10 0-19.9 0-8.6 0-17.2 0c-3.8 0-7.7 0-11.6 0-2.1 0-0.1-3.9 0.3-4.9 1.4-3 3.1-5.9 4.9-8.7z"/><path fill-rule="evenodd" class="c" d="m216.9 108.8v8.2c0 2.7-2.1 5-4.8 5.4l-6.8 0.8q-0.8 2.6-2 5l4.2 5.4c1.7 2.2 1.5 5.3-0.5 7.2l-5.7 5.7c-1.9 2-5 2.2-7.2 0.5l-5.4-4.2q-2.4 1.2-5 2l-0.9 6.8c-0.3 2.8-2.6 4.8-5.3 4.8h-8.2c-2.7 0-5-2-5.4-4.8l-0.8-6.8q-2.6-0.8-5-2l-5.4 4.2c-2.2 1.7-5.3 1.5-7.2-0.5l-5.7-5.7c-2-1.9-2.2-5-0.5-7.2l4.2-5.4q-1.2-2.4-2-5l-6.9-0.8c-2.7-0.4-4.7-2.7-4.7-5.4v-8.2c0-2.7 2-5 4.8-5.3l6.8-0.9q0.8-2.6 2-5l-4.2-5.4c-1.7-2.2-1.5-5.3 0.5-7.2l5.7-5.7c1.9-2 5-2.2 7.2-0.5l5.4 4.2q2.4-1.2 5-2l0.8-6.8c0.4-2.8 2.7-4.8 5.4-4.8h8.2c2.7 0 5 2 5.3 4.8l0.9 6.8q2.6 0.8 5 2l5.4-4.2c2.2-1.7 5.3-1.5 7.2 0.5l5.7 5.7c2 1.9 2.2 5 0.5 7.2l-4.3 5.4q1.3 2.4 2.1 5l6.8 0.9c2.7 0.3 4.8 2.6 4.8 5.3zm-25.4 4.1c0-10-8.1-18.1-18.1-18.1-10 0-18.1 8.1-18.1 18.1 0 10 8.1 18.1 18.1 18.1 10 0 18.1-8.1 18.1-18.1z"/><path class="d" d="m185.9 115.8c-1.7 6.9-8.5 11.2-15.4 9.6-6.9-1.6-11.2-8.5-9.6-15.4 1.6-6.9 8.5-11.2 15.4-9.6 6.9 1.7 11.2 8.5 9.6 15.4z"/><path class="b" d="m453 442.6c0 3.3-34.9 5.9-78 5.9-43.1 0-78-2.6-78-5.9 0-3.3 34.9-5.9 78-5.9 43.1 0 78 2.6 78 5.9z"/><path fill-rule="evenodd" class="e" d="m619.3 166.8v7.8c0 2.6-2 4.9-4.6 5.2l-6.5 0.8q-0.8 2.5-2 4.8l4 5.2c1.7 2.1 1.5 5.1-0.4 6.9l-5.5 5.5c-1.8 1.8-4.8 2-6.9 0.4l-5.2-4q-2.3 1.1-4.7 1.9l-0.9 6.6c-0.3 2.6-2.5 4.6-5.1 4.6h-7.8c-2.7 0-4.9-2-5.2-4.6l-0.8-6.6q-2.5-0.8-4.8-1.9l-5.2 4c-2.1 1.6-5.1 1.4-6.9-0.4l-5.5-5.5c-1.9-1.8-2.1-4.8-0.4-6.9l4-5.2q-1.2-2.3-2-4.8l-6.5-0.8c-2.6-0.3-4.6-2.6-4.6-5.2v-7.8c0-2.6 2-4.8 4.6-5.2l6.5-0.8q0.8-2.5 2-4.8l-4-5.2c-1.7-2.1-1.5-5 0.4-6.9l5.5-5.4c1.8-1.9 4.8-2.1 6.9-0.5l5.2 4.1q2.3-1.2 4.8-2l0.8-6.6c0.3-2.6 2.5-4.5 5.2-4.5h7.8c2.6 0 4.8 1.9 5.1 4.6l0.9 6.5q2.5 0.8 4.7 2l5.2-4.1c2.1-1.6 5.1-1.4 6.9 0.5l5.5 5.5c1.9 1.8 2.1 4.7 0.4 6.8l-4 5.2q1.2 2.3 2 4.8l6.5 0.8c2.6 0.4 4.6 2.6 4.6 5.2zm-24.3 3.9c0-9.6-7.8-17.4-17.4-17.4-9.6 0-17.4 7.8-17.4 17.4 0 9.6 7.8 17.4 17.4 17.4 9.5 0 17.4-7.8 17.4-17.4z"/><path fill-rule="evenodd" class="e" d="m577.6 184c-7.4 0-13.3-6-13.3-13.3 0-7.3 5.9-13.3 13.3-13.3 7.3 0 13.3 6 13.3 13.3 0 7.3-6 13.3-13.3 13.3zm0-24.6c-6.3 0-11.3 5.1-11.3 11.3 0 6.2 5 11.3 11.3 11.3 6.2 0 11.3-5.1 11.3-11.3 0-6.2-5.1-11.3-11.3-11.3z"/><path class="f" d="m565.2 123.6v241.2c0 8.2-6.4 15-14.2 15h-352c-7.8 0-14.2-6.8-14.2-15v-241.2c0-8.3 6.4-15 14.2-15h352c7.8 0 14.2 6.7 14.2 15z"/><path class="g" d="m565.2 339.5v25.3c0 8.2-6.4 15-14.2 15h-352c-7.8 0-14.2-6.8-14.2-15v-25.3z"/><path class="h" d="m200.8 124.5h348.4v198.1h-348.4z"/><path class="b" d="m375 368.6c-4.9 0-8.9-4-8.9-9 0-4.9 4-8.9 8.9-8.9 4.9 0 8.9 4 8.9 8.9 0 5-4 9-8.9 9z"/><path class="g" d="m419.4 434.9h-88.8l4.9-23.1 6.9-32h62.4l3.4 12.8z"/><path class="g" d="m439.6 442.4h-129.2v-1.9c0-3.1 2.5-5.6 5.7-5.6h117.8c3.2 0 5.7 2.5 5.7 5.6z"/><path class="b" d="m408.2 392.6l-72.7 19.2 6.9-32h62.4z"/><path class="b" d="m580.9 430.1c0 3.3 17.2 5.9 38.5 5.9 21.3 0 38.6-2.6 38.6-5.9 0-3.3-17.3-5.9-38.6-5.9-21.3 0-38.5 2.6-38.5 5.9z"/><path class="i" d="m581.6 279.8q-0.2-0.6-0.6-1.3-0.3-0.5-0.5-1c-0.7-1.1-1.5-2.3-2.3-3.1-0.3-0.3-0.7-0.6-1-0.7-2.3-1-5.9-2.5-6.4-1.6-0.6 0.9 6 3.8 6 3.8l-0.1 2-2.8-0.9-4.4 0.8c0 0-0.2 0.8-0.4 1.9q0 0.1 0 0.3 0 0 0 0 0 0 0 0.1-0.1 0.2-0.1 0.4c-0.1 0.5-0.2 1-0.2 1.5q0 0.1 0 0.1 0 0.5 0 0.8 0 0.4 0.2 0.6l3.4 0.1c0 0 2.8 3.9 3.5 4.2 0.3 0.1 1.5-0.1 2.9-0.3q0.7-0.2 1.5-0.3 0 0 0 0 0.3-0.1 0.5-0.2l2.8-5.2c0-0.1-1.9-1.9-2-2z"/><path class="j" d="m569.1 279.7q0 0.2 0 0.4 0 0 0 0c0.6-0.1 1.2-0.1 2-0.2 0.7 0 1.4 0 1.9 0.1q0.2 0 0.4 0 0.1 0.1 0.2 0.1 0.2 0 0.3 0-0.1 0-0.2-0.1-0.1-0.1-0.3-0.2-0.1-0.1-0.3-0.2c-0.5-0.2-1.3-0.4-2.1-0.4-0.8 0.1-1.4 0.3-1.9 0.5z"/><path class="j" d="m568.8 282q0 0.1 0 0.1 0.2 0 0.5 0c0.6-0.1 1.2-0.1 2-0.2 0.7 0 1.4 0 1.9 0.1q0.2 0 0.4 0 0.1 0.1 0.2 0.1 0.2 0 0.3 0 0 0-0.2-0.1-0.1-0.1-0.3-0.2-0.1-0.1-0.3-0.2c-0.5-0.2-1.3-0.4-2.1-0.4-0.8 0.1-1.5 0.3-2 0.5q-0.2 0.2-0.4 0.3z"/><path class="i" d="m581.3 280.5c0 0-3.5-3.5-4.4-3.3-0.9 0.2-1.1 1-0.8 1.7 0.4 0.7 2.7 4.9 2.7 4.9 0 0 2.1 0.5 2.4 0 0.4-0.5 0.9-2.2 0.9-2.2z"/><path class="k" d="m581.6 280.7c0 0-4.2-3-4.6-3-0.4 0-0.5 0.3-0.5 0.6 0 0.3 2.6 5.9 2.6 5.9 0 0-4.6-5.4-2.7-6.8 1.9-1.4 5.2 3.3 5.2 3.3z"/><path class="c" d="m614.8 261.7c0 0-6.4 1.4-7.1 2.4-0.7 1.1-9.2 27.2-9.2 27.2l-14-10.7-6.9 8.5c0 0 16.5 15.7 19.4 16.8 2.9 1.1 3.7 0.2 6-1.3 2.3-1.6 9.2-12.1 9.2-12.1z"/><path class="l" d="m639.6 427.6c-0.3-0.5-0.4-1.1 0-1.8 1-1.8 5.3-8.1 5.9-10.5 0.6-1.9 0.1-4.7-0.1-5.9l11.2-7.2c2.6 2.3 6.9 7.4 7.8 8.5z"/><path class="m" d="m641.3 430.1l24.8-16.9-1.7-2.5-24.8 16.9z"/><path class="m" d="m648.1 414.6q0.1 0 0.1 0c0.3 0.1 0.6 0.4 0.4 0.8-0.1 0.1-0.3 0.2-0.5 0.3-0.6 0.3-1.3 0.4-1.9 0.4-0.7 0.1-1.5 0.1-2.2-0.1-0.7-0.3-0.6-1.1 0.1-1.4 1.2-0.5 2.8-0.6 4 0z"/><path class="m" d="m647.1 417.2q0.1 0 0.2 0c0.2 0.2 0.5 0.4 0.3 0.8-0.1 0.1-0.3 0.2-0.4 0.3-0.7 0.3-1.3 0.4-2 0.4-0.7 0.1-1.5 0.1-2.2-0.1-0.7-0.3-0.5-1.1 0.2-1.4 1.1-0.5 2.8-0.6 3.9 0z"/><path class="m" d="m645.4 419.6q0.1 0 0.2 0.1c0.2 0.1 0.5 0.4 0.3 0.7-0.1 0.2-0.3 0.3-0.4 0.3-0.7 0.3-1.3 0.4-2 0.5-0.7 0-1.5 0.1-2.2-0.2-0.7-0.3-0.5-1.1 0.2-1.4 1.1-0.5 2.8-0.5 3.9 0z"/><path class="n" d="m628.4 326.5c-0.8 10.2-1.5 21.2-0.3 24.3 0.1 0.1 30.7 50.3 31.4 51.4l-17 8.8c-2.5-4.6-34.4-58.3-34.4-59.4-0.2-2.2 0.8-25.1 1.2-36.2l10.3 0.4z"/><path class="l" d="m587.6 423c0.2-0.5 0.5-1.1 1.2-1.3 2-0.7 9.4-2.5 11.5-3.8 1.6-1.1 3.2-3.5 3.9-4.5l13.1 2.2c0.4 3.5 0.2 10.1 0.1 11.5z"/><path class="m" d="m587.2 426l0.5-3 29.8 4.1-0.5 3z"/><path class="m" d="m602.7 419q0 0.1 0 0.2c0.1 0.2 0.2 0.7-0.2 0.8-0.2 0-0.4 0-0.6-0.1-0.6-0.2-1.2-0.6-1.7-1-0.6-0.4-1.2-0.9-1.5-1.6-0.3-0.6 0.3-1.2 1-0.9 1.2 0.4 2.5 1.5 3 2.6z"/><path class="m" d="m600.2 420.3q0.1 0.1 0.1 0.1c0.1 0.3 0.1 0.7-0.2 0.9-0.2 0-0.4 0-0.6-0.1-0.7-0.2-1.2-0.6-1.8-1-0.5-0.4-1.1-0.9-1.5-1.6-0.3-0.7 0.4-1.2 1.1-0.9 1.1 0.4 2.4 1.4 2.9 2.6z"/><path class="m" d="m597.3 421q0 0.1 0.1 0.1c0.1 0.3 0.1 0.7-0.2 0.8-0.2 0.1-0.4 0-0.6 0-0.7-0.3-1.2-0.6-1.8-1-0.5-0.5-1.1-0.9-1.5-1.6-0.3-0.7 0.4-1.2 1.1-0.9 1.1 0.4 2.4 1.4 2.9 2.6z"/><path class="o" d="m641.3 315.4c-0.2 0.6 2.5 11.7 2.5 13.4q0 0.1 0 0.2-0.2 0.4-0.4 0.9c-2.9 7.1-15.8 39-18.8 46.5l-6.4 40-3.7-0.7-12-2.2 4.8-42.5c3-9.7 6-41.2 9.7-54.2l21-1z"/><path class="p" d="m609.9 369.4c-0.6 1.6-0.5 3.4-0.1 4.9 0.3 1.4 1.1 2.8 2.4 2.8 0.6 0.1 1.3-0.3 1.8-0.8 0.6-0.6 0.9-1.2 1.3-1.9 0.5-1.1 0.9-2.2 1.1-3.3 0.2-1.1 0.1-2.3-0.5-3.3-1.6-2.8-5-1.3-6 1.6z"/><path class="n" d="m641.3 315.4c-0.2 0.6 2.5 11.7 2.5 13.4q0 0.1 0 0.2-0.2 0.4-0.4 0.9c-2.9 7.1-15.8 39-18.8 46.5l-6.4 40-3.7-0.7 5.7-37.7c3.6-9.9 14.1-36.2 20.1-51.3l-2.3-10.9z"/><path class="c" d="m625.8 260.7c0 0-8.8 0.3-11 1 0 0-4.1 12.8-5.7 17.6-1.6 4.8-1 32.2-1 32.2 0 0-1.9 4.6-1.4 7.2 0.5 2.6 2.3 4.7 2.3 4.7 0 0 31 2.2 33.8-0.3 2.7-2.5 2.6-4.5 2.7-5.7 0.1-1.2-1.9-4.8-1.9-4.8 0 0 1.2-29 0.4-32.1-0.8-3 3.3-14 3.3-14l-5.6-5.8z"/><path class="q" d="m610 278.5l3.1-12.7-1.6 13.8z"/><path class="i" d="m635.1 259.1c-0.2 0.2-9.1 5.8-9.1 5.8 0 0 0.5-3.9 0.8-5.9 0.1-0.7 0.1-1.1 0.1-1.2 0.1-0.8-0.3-4.4-0.3-4.4l8.9-3.2c0 0-0.1 1.8-0.1 3.8-0.1 2.4-0.1 5-0.3 5.1z"/><path class="r" d="m635.4 254c-2.5 1.5-8 4.9-8.6 5q0 0 0 0c0.1-0.7 0.1-1.1 0.1-1.2 0.1-0.8-0.3-4.4-0.3-4.4l8.9-3.2c0 0-0.1 1.8-0.1 3.8z"/><path class="i" d="m636.6 250.6c0 0-0.3 0.6-1.3 1.4q-0.3 0.2-0.7 0.5c-1.1 0.6-10.8 3.9-12.2 3.5-1.4-0.3-2.3-5.4-2.3-6-0.2-3.3-0.6-13.4-0.6-13.4 4.5-10.6 16.6-3.8 18-2.6 1.3 1.2-0.9 16.6-0.9 16.6z"/><path class="s" d="m635.3 252q-0.3 0.2-0.7 0.5c-1.1 0.6-10.8 3.9-12.2 3.5-1.4-0.3-2.3-5.4-2.3-6 0.7 2.3 1.4 5.5 2.4 5.4 1.6 0 11.6-2.9 12.8-3.4z"/><path class="t" d="m620.8 239.8c0 0 0.8-2.9 2-2.3 1.2 0.5 0.8 0.7 0.8 0.7z"/><path class="t" d="m634 238.2c0 0-3.5-3.5-4.7-2.1-0.7 0.9-0.1 1.3-0.1 1.3z"/><path class="u" d="m631.9 243.1c-0.1 1-0.7 1.8-1.3 1.8-0.6-0.1-1.1-1-1-2 0.1-1 0.7-1.7 1.3-1.7 0.6 0.1 1 0.9 1 1.9z"/><path class="m" d="m633 242.2c0 0-0.4 0.6-1.1 0.8-0.7 0.2-1.4 0-1.4 0 0 0 0.4-0.6 1.1-0.8 0.7-0.2 1.4 0 1.4 0z"/><path class="u" d="m621.2 242.9c0 0.7 0.3 1.4 0.8 1.4 0.4 0.1 0.9-0.5 0.9-1.3 0.1-0.7-0.2-1.4-0.7-1.4-0.5-0.1-0.9 0.5-1 1.3z"/><path class="m" d="m620.6 242.1c0 0 0.2 0.5 0.7 0.7 0.5 0.3 1 0.2 1 0.2 0 0-0.3-0.4-0.8-0.7-0.4-0.2-0.9-0.2-0.9-0.2z"/><path class="k" d="m629 251.5c-0.9 0.3-2 0.3-2.8-0.2 0.3 0.5 0.7 0.8 1.2 0.8 0.5 0 1.2-0.3 1.6-0.6z"/><path class="r" d="m621.7 247.2c-0.2 0.3-1 0.3-1.9-0.1-0.9-0.4-1.4-1.1-1.2-1.5 0.1-0.4 1-0.3 1.9 0.1 0.8 0.4 1.4 1.1 1.2 1.5z"/><path class="r" d="m633.2 246.3c0.1 0.6-1 1.3-2.4 1.6-1.3 0.2-2.5-0.1-2.6-0.7-0.1-0.7 0.9-1.3 2.3-1.6 1.4-0.2 2.6 0.1 2.7 0.7z"/><path class="k" d="m631.2 248.9q0 0-0.2 0.2-0.2 0.3-0.6 0.6c-0.5 0.4-1.3 0.8-2.2 1-1 0.1-1.9 0-2.5-0.3q-0.5-0.1-0.7-0.3-0.2-0.1-0.2-0.1 0 0 0.2 0 0.3 0.1 0.7 0.2c0.6 0.1 1.5 0.1 2.4 0 0.9-0.1 1.7-0.4 2.2-0.7q0.4-0.3 0.6-0.4 0.3-0.2 0.3-0.2z"/><path class="r" d="m624.2 246.7l-0.1 1c0 0 1.6 0.8 3 0.1 0 0 0.4-0.7 0.5-1.2 0 0-2.5 0.7-3.4 0.1z"/><path class="k" d="m627.1 247.8c-1 0.6-2.3 0.6-3.3 0.1 0.2-0.7 0.2-1.4 0.1-2.1-0.1-0.7-0.3-1.3-0.2-2 0-0.7 0.3-1.4 0.9-1.8-0.5 0.8-0.3 1.8-0.2 2.8 0.2 0.9 0.4 1.9 0 2.7 0.8 0.3 1.8 0.5 2.7 0.3z"/><path class="i" d="m635.2 250.9c1.9 0 3.4-1 4.3-1.9q0.2-0.3 0.4-0.6c0.6-1 1.1-4.4-0.2-5.4-1-0.6-1.8 0.1-2.2 0.6q0 0 0 0c-0.1 0.3-0.2 0.4-0.2 0.4z"/><path class="r" d="m639.9 245.8c0 0.3-0.1 0.6-0.2 0.9-0.5 1.1-1.7 1.9-2.9 2.6 0.4-0.5 0.6-1.1 0.6-1.8 0-0.2-0.1-0.4 0-0.6 0-0.9 2.2-2.8 2.5-1.1z"/><path class="j" d="m636.2 249.6q0 0 0.1 0 0.1 0 0.2-0.1c0.2-0.1 0.4-0.2 0.6-0.4 0.2-0.3 0.4-0.6 0.5-0.9 0.1-0.4 0.1-0.8 0-1.3q0-0.1-0.1-0.1v-0.1q0 0 0 0 0 0 0 0l0.1-0.1q0-0.1 0.1-0.1 0.1-0.3 0.3-0.5 0.2-0.2 0.4-0.4 0.2-0.1 0.4-0.3 0.2-0.1 0.4-0.1 0.2 0 0.3 0.1 0.1 0.1 0.1 0.1 0 0.1 0 0.1 0 0 0-0.1 0 0-0.1-0.1-0.1-0.1-0.3-0.2-0.3 0-0.5 0.1-0.2 0.1-0.5 0.3-0.2 0.1-0.4 0.4-0.3 0.2-0.5 0.4 0 0.1-0.1 0.1v0.1l-0.1 0.1v0.1q0 0 0 0l0.1 0.1q0 0.1 0 0.2c0.2 0.4 0.2 0.8 0.1 1.1q-0.1 0.5-0.4 0.9-0.2 0.3-0.4 0.5-0.1 0-0.2 0.1-0.1 0-0.1 0z"/><path class="t" d="m640 239.6l-0.3 3.4c0 0-2.5 1.4-2.8 2.4l-0.4-7.6c0 0-2.9-2.7-3.3-3.7 0 0-11.5 3.7-13.7 2.5-0.8-0.4-1.1-1.7-1.1-3 0-1.2 0.3-2.4 0.5-3.1 0.6-1.6 1.6-3 2.9-4.1 0.6 0.4 1 0.9 1.4 1.5 1-2.4 3.5-3.6 5.9-4.6 0.5 0.5 1 1.1 1.3 1.8 1.7-0.6 3.5-0.8 5.3-0.7q0 1.2-0.2 2.4c1.3 0.1 2.8 0.8 3.8 1.7 0.7 0.6 1.2 1.3 1.9 1.9q-0.6 0.9-1.1 1.8c0.9 1.1 1.6 2.5 2.1 3.8q-1 0.6-2 1.2z"/><path class="v" d="m640.2 237.3l-0.2 2.3c-0.7-1.2-1.2-2.5-2.2-3.4q0.8-0.3 1.6-0.6-1.5-1.4-3.3-2.5 0.7-0.7 1.3-1.4c-1.6-0.8-3.4-0.9-5.1-0.3q0.2-1.2 0.4-2.5c-1.8 0.5-3.5 1.6-4.7 3q-0.1-1.8-0.5-3.5c-1.8 1.1-3.3 2.8-4.2 4.9-0.5-1.3-1.2-2.4-2.1-3.4-1.1 1-2.1 2.3-2.8 3.7 0-1.2 0.3-2.4 0.5-3.1q0.3-0.7 0.7-1.4c0.6-1 1.3-1.9 2.2-2.7 0.6 0.4 1 0.9 1.4 1.5 1-2.4 3.5-3.6 5.9-4.6 0.5 0.5 1 1.1 1.3 1.8 1.7-0.6 3.5-0.8 5.3-0.7q0 1.2-0.2 2.4c1.3 0.1 2.8 0.8 3.8 1.7 0.7 0.6 1.2 1.3 1.9 1.9q-0.5 0.9-1.1 1.8c0.9 1.1 1.6 2.5 2.1 3.8q-1 0.6-2 1.2z"/><path class="w" d="m642.2 236q-1 0.6-2 1.2v0.1q-0.5-0.6-0.9-1.1 0.5-0.3 1-0.5c-0.4-1.4-1.2-2.8-2.2-3.9q0.6-0.9 1.2-1.8c-1.8-0.6-3.7-0.9-5.6-0.9q0.1-1.5-0.2-3.1c-1.5 0.5-3 1.3-4.2 2.4-0.4-1-0.9-2-1.6-2.8-1.9 1.3-3.6 3.1-4.7 5.2-0.4-1.1-1.1-2-2-2.6q-0.7 0.4-1.4 0.9c0.6-1 1.3-1.9 2.2-2.7 0.6 0.4 1 0.9 1.4 1.5 1-2.4 3.5-3.6 5.9-4.6 0.5 0.5 1 1.1 1.3 1.8 1.7-0.6 3.5-0.8 5.3-0.7q0 1.2-0.2 2.4c1.3 0.1 2.8 0.8 3.8 1.7 0.7 0.6 1.2 1.3 1.9 1.9q-0.5 0.9-1.1 1.8c0.9 1.1 1.6 2.5 2.1 3.8z"/><path class="q" d="m626.9 257.8c0 0-2.1 0.4-3.6 1.4-1.5 1-1.7 8.1-1.7 8.1l4.4-2.4 3.4 4.8c0 0 8.7-7.7 9-8.9 0.2-1.3-3.1-3.1-3.1-3.1l-8.5 5z"/><path class="f" d="m612.8 297.5l3.9 22.9c0.2 0.8 0.9 1.4 1.7 1.2l16.1-2.5c0.9-0.1 1.4-0.9 1.3-1.7l-4.5-23.4c-0.2-0.8-1-1.4-1.8-1.2l-15.5 3c-0.8 0.1-1.3 0.9-1.2 1.7z"/><path class="c" d="m641.7 260.7c0 0 8.9 2.1 10.6 4.8 1.8 2.6 4.5 40.3 4.3 42.2-0.2 1.9-23.3 5.7-23.3 5.7l-2.2-11.5 13-3.7-0.1-17.7z"/><path class="i" d="m612.1 308c0.5 0.9 6.6-3.3 6.6-3.3l1.7 1.2-2.4 2-1.6 4.2c0 0 0.6 0.6 1.3 1.3q0.2 0.2 0.3 0.3c0.5 0.5 1 0.9 1.5 1.2q0.1 0.1 0.2 0.1 0.3 0.3 0.6 0.5 0.4 0.1 0.6 0.1l2-2.9c0 0 4.8-0.4 5.4-0.8 0.3-0.2 0.8-1.4 1.3-2.7 0.3-0.7 1.3-3.2 1.5-3.8l-2.1-2.4-4-0.3c-0.5-0.1-1.1-0.2-1.8-0.2q-0.6 0-1.1-0.1c-1.4 0-2.8 0-3.9 0.3q-0.7 0.2-1.2 0.5c-2.1 1.5-5.4 3.8-4.9 4.8z"/><path class="j" d="m619.5 314.9q0.1 0.1 0.2 0.1 0.1-0.2 0.2-0.5c0.3-0.4 0.6-1.1 0.9-1.7 0.4-0.7 0.8-1.3 1.1-1.7q0.2-0.1 0.3-0.3 0.1-0.1 0.2-0.2 0.1-0.1 0.1-0.1 0 0-0.2 0.1-0.1 0-0.3 0.1-0.1 0.1-0.3 0.2c-0.5 0.3-1.1 0.8-1.5 1.6-0.4 0.7-0.6 1.4-0.6 2q-0.1 0.2-0.1 0.4z"/><path class="j" d="m617.7 313.4q0.2 0.2 0.3 0.3 0.1 0 0.1-0.1c0.2-0.4 0.6-1.1 0.9-1.7 0.4-0.7 0.8-1.3 1.1-1.7q0.1-0.1 0.2-0.3 0.1-0.1 0.2-0.1 0.2-0.2 0.2-0.2 0 0-0.2 0.1-0.2 0-0.3 0.1-0.2 0.1-0.3 0.2c-0.5 0.3-1.1 0.8-1.5 1.6-0.4 0.7-0.6 1.3-0.7 1.8z"/><path class="q" d="m627.7 300.3l2.7 13.4 13.2-1.1-9.6-1.5-2.2-8.8 12.4-4.6-2.3-20.7c0 0 2.1-6.5 4.7-8.1 0 0-6.8 4-7 8.3-0.3 4.3 1.4 19.6 1.4 19.6z"/><path class="h" d="m662.1 233.9l-8.6 5.8 9.5-0.8z"/><path class="h" d="m650.6 231.5l0.6 7 2.6-5.9z"/><path class="h" d="m659.9 244.1l-7.5-1.1 5.6 4.3z"/><path class="g" d="m229.1 157.1v12.8h-19.3v-17.7h14z"/><path class="f" d="m229.1 157.1l-5.3 2v-6.9z"/><path class="x" d="m210.9 173.3h18.2"/><path class="y" d="m443.1 141.4c0 1-0.8 1.8-1.7 1.8-1 0-1.8-0.8-1.8-1.8 0-0.9 0.8-1.7 1.8-1.7 0.9 0 1.7 0.8 1.7 1.7z"/><path class="y" d="m450.7 141.4c0 1-0.8 1.8-1.8 1.8-0.9 0-1.7-0.8-1.7-1.8 0-0.9 0.8-1.7 1.7-1.7 1 0 1.8 0.8 1.8 1.7z"/><path class="y" d="m458.2 141.4c0 1-0.8 1.8-1.8 1.8-0.9 0-1.7-0.8-1.7-1.8 0-0.9 0.8-1.7 1.8-1.7 0.9 0 1.7 0.8 1.7 1.7z"/><path class="z" d="m518.9 192.7c0 8.4-6.8 15.2-15.3 15.2-8.4 0-15.2-6.8-15.2-15.2 0-8.5 6.8-15.3 15.2-15.3v15.3z"/><path class="e" d="m521.5 189.7h-15.3v-15.3c8.5 0 15.3 6.8 15.3 15.3z"/><path class="g" d="m524.5 219.9h-39.1c-1.5 0-2.7-1.2-2.7-2.7v-3.2c0-1.5 1.2-2.7 2.7-2.7h39.1c1.5 0 2.7 1.2 2.7 2.7v3.2c0 1.5-1.2 2.7-2.7 2.7z"/><path class="g" d="m524.5 256.7h-39.1c-1.5 0-2.7-1.2-2.7-2.7v-28.1c0-1.5 1.2-2.7 2.7-2.7h39.1c1.5 0 2.7 1.2 2.7 2.7v28.1c0 1.5-1.2 2.7-2.7 2.7z"/><path class="a" d="m543.4 84.3v62.4c0 4-3.3 7.3-7.3 7.3h-118.7c-4 0-7.3-3.3-7.3-7.3v-62.4z"/><path class="f" d="m535.5 75.9h-117.5c-4.4 0-7.9 3.6-7.9 8v0.4h133.3v-0.4c0-4.4-3.6-8-7.9-8z"/><path class="y" d="m523 80.1c0 0.7-0.6 1.3-1.3 1.3-0.7 0-1.2-0.6-1.2-1.3 0-0.7 0.5-1.2 1.2-1.2 0.7 0 1.3 0.5 1.3 1.2z"/><path class="y" d="m527.2 81.4c-0.7 0-1.2-0.6-1.2-1.3 0-0.7 0.5-1.2 1.2-1.2 0.8 0 1.3 0.5 1.3 1.2 0 0.7-0.5 1.3-1.3 1.3z"/><path class="y" d="m532.8 81.4c-0.7 0-1.3-0.6-1.3-1.3 0-0.7 0.6-1.2 1.3-1.2 0.7 0 1.2 0.5 1.2 1.2 0 0.7-0.5 1.3-1.2 1.3z"/><path class="h" d="m420.8 91.8h20.7v20.7h-20.7z"/><path class="f" d="m422.9 110.7h16.9l-5.6-10.6-4.7 7.1-2.8-3.8z"/><path class="f" d="m429.1 97.5c0 1-0.8 1.8-1.8 1.8-1 0-1.8-0.8-1.8-1.8 0-1 0.8-1.8 1.8-1.8 1 0 1.8 0.8 1.8 1.8z"/><path class="y" d="m444.1 92.5h37.8v1.2h-37.8z"/><path class="y" d="m444.1 97.5h25.1v1.3h-25.1z"/><path class="h" d="m420.8 118.6h20.7v20.7h-20.7z"/><path class="f" d="m422.9 137.6h16.9l-5.6-10.7-4.7 7.2-2.8-3.8z"/><path class="f" d="m429.1 124.4c0 1-0.8 1.8-1.8 1.8-1 0-1.8-0.8-1.8-1.8 0-1 0.8-1.8 1.8-1.8 1 0 1.8 0.8 1.8 1.8z"/><path class="y" d="m444.1 119.3h37.8v1.3h-37.8z"/><path class="y" d="m444.1 124.4h25.1v1.2h-25.1z"/><path class="g" d="m488.4 92.5h48.4v48.4h-48.4z"/><path class="A" d="m515.7 103.6l4.5-4.9h6.5"/><path class="e" d="m522.9 105.1l-5.6 6.3c1.4 1.3 2.4 3.2 2.4 5.3 0 3.9-3.2 7-7.1 7-3.9 0-7.1-3.1-7.1-7 0-3.9 3.2-7.1 7.1-7.1v-8.4c-8.6 0-15.5 6.9-15.5 15.5 0 7.2 4.9 13.2 11.5 15q1.9 0.5 4 0.5c8.6 0 15.5-7 15.5-15.5 0-4.6-2-8.8-5.2-11.6z"/><path class="a" d="m522.9 105.1l-5.6 6.3c-1.3-1.1-2.9-1.8-4.7-1.8v-8.4c4 0 7.6 1.4 10.3 3.9z"/><path class="A" d="m509 131.4l-4 3.6h-6.1"/><path class="c" d="m528.5 98.6c0 0.7-0.5 1.2-1.1 1.2-0.7 0-1.2-0.5-1.2-1.2 0-0.6 0.5-1.1 1.2-1.1 0.6 0 1.1 0.5 1.1 1.1z"/><path class="c" d="m499.4 135c0 0.6-0.5 1.1-1.2 1.1-0.6 0-1.1-0.5-1.1-1.1 0-0.7 0.5-1.2 1.1-1.2 0.7 0 1.2 0.5 1.2 1.2z"/><path class="B" d="m478.3 126.9v27.1h-60.9c-4 0-7.3-3.3-7.3-7.3v-19.5l0.1-0.3c0 0 68.1 0 68.1 0z"/><path class="g" d="m262.8 291.2h180.4v2.4h-180.4z"/><path class="c" d="m481.4 248.8l-9.3-4.1 3.7-4.3z"/><path class="c" d="m482 252.1l-5.6 3.2-0.9-3.4z"/><path class="c" d="m485.3 246.7l-2.7-6.2 3.1-1z"/><path class="e" d="m149.1 187.3c-1.7 7.5-9.3 12.2-16.8 10.4-7.5-1.8-12.1-9.3-10.3-16.8 1.8-7.5 9.3-12.2 16.8-10.4 7.5 1.8 12.1 9.3 10.3 16.8z"/><path class="e" d="m142.2 196.4l9.6 2.8-3.3-9.9c0 0-6.5 3.3-6.3 7.1z"/><path class="y" d="m129.7 184.6c0 0.8-0.6 1.5-1.5 1.5-0.8 0-1.5-0.7-1.5-1.5 0-0.9 0.7-1.5 1.5-1.5 0.9 0 1.5 0.6 1.5 1.5z"/><path class="y" d="m136.5 184.6c0 0.8-0.7 1.5-1.5 1.5-0.8 0-1.5-0.7-1.5-1.5 0-0.9 0.7-1.5 1.5-1.5 0.8 0 1.5 0.6 1.5 1.5z"/><path class="y" d="m143.3 184.6c0 0.8-0.7 1.5-1.5 1.5-0.9 0-1.5-0.7-1.5-1.5 0-0.9 0.6-1.5 1.5-1.5 0.8 0 1.5 0.6 1.5 1.5z"/><path class="g" d="m237.7 147.9h230.6v135.3h-230.6z"/><path class="f" d="m461.1 135h-216.6c-3.7 0-6.8 3-6.8 6.8v6.1h230.6v-5.7c0-4-3.2-7.2-7.2-7.2z"/><path class="a" d="m286.1 214.8h11.6v44.3h-11.6z"/><path class="a" d="m309.5 204.1h11.6v55h-11.6z"/><path class="C" d="m333.2 192.6h11.6v66.5h-11.6z"/><path class="c" d="m357.2 182h11.6v77.1h-11.6z"/><path class="a" d="m382.8 196.4h11.6v62.7h-11.6z"/><path class="c" d="m408.3 173.5h11.6v85.6h-11.6z"/><path class="D" d="m280.6 259.1h152.3"/><path class="e" d="m261.7 162h3.3v3.3h-3.3z"/><path class="E" d="m267.6 163.7h26.1"/><path class="e" d="m261.7 171.6h3.3v3.3h-3.3z"/><path class="E" d="m267.6 173.3h26.1"/><path class="e" d="m261.7 181.2h3.3v3.4h-3.3z"/><path class="E" d="m267.6 182.9h26.1"/><path class="F" d="m291.4 216l23.9-11.9 24.4-11.5 24.3-10.6 25.2 14.4 25.8-22.9"/><path class="e" d="m293.4 215.6c0 0.9-0.8 1.7-1.7 1.7-0.9 0-1.7-0.8-1.7-1.7 0-1 0.7-1.7 1.7-1.7 0.9 0 1.7 0.7 1.7 1.7z"/><path class="e" d="m317 204.1c0 1-0.7 1.7-1.7 1.7-0.9 0-1.6-0.7-1.6-1.7 0-0.9 0.7-1.7 1.6-1.7 1 0 1.7 0.8 1.7 1.7z"/><path class="e" d="m341 192.6c0 0.9-0.7 1.7-1.7 1.7-0.9 0-1.7-0.8-1.7-1.7 0-0.9 0.8-1.7 1.7-1.7 1 0 1.7 0.8 1.7 1.7z"/><path class="e" d="m365.3 182c0 0.9-0.8 1.7-1.7 1.7-0.9 0-1.7-0.8-1.7-1.7 0-0.9 0.8-1.7 1.7-1.7 0.9 0 1.7 0.8 1.7 1.7z"/><path class="e" d="m390.3 196.4c0 0.9-0.8 1.7-1.7 1.7-0.9 0-1.7-0.8-1.7-1.7 0-1 0.8-1.7 1.7-1.7 0.9 0 1.7 0.7 1.7 1.7z"/><path class="e" d="m413.3 171.3l3.8 4.7 0.9-5z"/><path class="e" d="m442.5 186.1c-1.1 0-2-0.9-2-2 0-1.2 0.9-2.1 2-2.1 1.2 0 2.1 0.9 2.1 2.1 0 1.1-0.9 2-2.1 2z"/><path class="e" d="m442.5 204.1c-1.1 0-2-0.9-2-2 0-1.2 0.9-2.1 2-2.1 1.2 0 2.1 0.9 2.1 2.1 0 1.1-0.9 2-2.1 2z"/><path class="e" d="m442.5 222.1c-1.1 0-2-0.9-2-2 0-1.2 0.9-2.1 2-2.1 1.2 0 2.1 0.9 2.1 2.1 0 1.1-0.9 2-2.1 2z"/><path class="e" d="m442.5 240.1c-1.1 0-2-0.9-2-2 0-1.2 0.9-2.1 2-2.1 1.2 0 2.1 0.9 2.1 2.1 0 1.1-0.9 2-2.1 2z"/><path class="c" d="m229.7 184.1v12.8h-19.3v-17.6h13.9z"/><path class="f" d="m229.7 184.1l-5.4 2.1v-6.9z"/><path class="b" d="m191.4 48.2c-2.1 0-3.8-1.6-3.8-3.7 0-2.1 1.7-3.8 3.8-3.8 2.1 0 3.7 1.7 3.7 3.8 0 2.1-1.6 3.7-3.7 3.7z"/><path class="b" d="m662.6 97.4c-1.5 0-2.7-1.2-2.7-2.7 0-1.5 1.2-2.7 2.7-2.7 1.4 0 2.6 1.2 2.6 2.7 0 1.5-1.2 2.7-2.6 2.7z"/><path class="a" d="m72 304.9c0 1.5-1.2 2.7-2.7 2.7-1.5 0-2.7-1.2-2.7-2.7 0-1.5 1.2-2.7 2.7-2.7 1.5 0 2.7 1.2 2.7 2.7z"/><path class="b" d="m130.8 377.3q1.3-2 2.7-4c2.5-3.5 5.4-6.9 9.3-8.7 4-1.9 8.7-2 12.8-0.4 4 1.7 7.3 5.1 8.9 9.2 0.8-5.7 3.5-11.2 7.9-15 4.3-3.8 11.1-5.1 16-2.2 3.3 1.8 5.4 5.2 6.4 8.8 0.9 3.6 0.8 7.4 0.4 11.1 4.1-0.7 8.2 1.1 11.2 4 3 2.9 4.9 6.8 6.2 10.8q-2.8 0-5.5 0-7 0-14.1 0-9.4 0-18.8 0-9.9 0-19.8 0-8.6 0-17.2 0c-3.9 0-7.7 0-11.6 0-2.1 0-0.2-3.9 0.3-5 1.4-3 3.1-5.8 4.9-8.6z"/><path class="b" d="m106.6 425.5c0 3.3 17.3 6 38.6 6 21.3 0 38.6-2.7 38.6-6 0-3.4-17.3-6.1-38.6-6.1-21.3 0-38.6 2.7-38.6 6.1z"/><path class="r" d="m191.3 244.9c0.3 1-0.1 2.1-0.5 3-0.7 1.7-1.3 3.6-2 5.3l-0.5 4.4-5.3-0.4-1.5-0.2 0.6-4.2c-2-1.8-3.8-4-5-6.5-0.4-1-0.7-2.1-1.3-3-0.7-1.2-1.8-2.1-2.6-3.2-0.2-0.3-0.4-0.6-0.4-0.9 0-0.4 0.4-0.7 0.8-0.8 0.4-0.1 0.8 0 1.2 0.2q0.1 0 0.1 0c1.7 0.7 3.3 1.9 4.2 3.6 0.2 0.2 0.3 0.4 0.5 0.5 0.2 0.1 0.4 0 0.6 0 1.3-0.3 2.3-1.3 3.1-2.3 0.4-0.5 0.7-1 1.2-1.2 0.7-0.2 1.5 0.2 2.2 0.7q1.9 1.4 3.5 3.1c0.5 0.6 1 1.2 1.1 1.9z"/><path class="i" d="m186.8 253l-1 4.4-4.3-0.4 0.5-4.2c-1.9-1.8-3.8-4-4.9-6.5-0.4-1-0.7-2.1-1.3-3-0.7-1.2-1.8-2.1-2.6-3.2-0.2-0.3-0.4-0.6-0.4-0.9 0-0.4 0.4-0.7 0.8-0.8 0.4-0.1 0.8 0 1.2 0.2q0.1 0 0.1 0c-0.2 0.1-0.5 0.2-0.6 0.4-0.4 0.6 0.3 1.2 0.8 1.7 1.2 1 1.7 2.7 2.3 4.1 1.3 2.8 6.8 6.4 9.4 8.2z"/><path class="j" d="m185.3 246.4c1.1 1 1.9 2.2 2.4 3.6-0.2-1.4-0.6-2.9-1.5-4-0.9-1.1-2.3-1.8-3.7-1.6-0.3 0-0.6 0.1-0.8 0.2 0.4 0.4 1.3 0.4 1.8 0.6q1 0.5 1.8 1.2z"/><path class="i" d="m191.8 245.2c-1.1 2-3.5 3.4-3.5 3.4q-0.7-0.3-1.3-0.9-0.3-0.3-0.6-0.5-0.6-0.7-1.2-1.4-0.2-0.3-0.5-0.7-0.6-0.9-1.1-1.7-0.2-0.4-0.4-0.7c-0.4-0.7-0.7-1.2-0.9-1.6-0.3-0.5-0.4-0.8-0.4-0.8 1.4-1.6 4.6-2.5 4.6-2.5 0.7 0.4 1.3 0.9 1.8 1.5 2.3 2.4 3.5 5.9 3.5 5.9z"/><path class="j" d="m186.1 241.1c0 0-0.2 0.2-0.5 0.5-0.3 0.3-0.7 0.8-1.2 1.1q-0.4 0.4-0.8 0.7-0.2-0.4-0.4-0.7 0.2-0.4 0.6-0.7c0.5-0.5 1.1-0.7 1.5-0.8 0.5-0.1 0.8-0.1 0.8-0.1z"/><path class="j" d="m187.5 243.5c0 0-0.2 0.2-0.4 0.6-0.3 0.3-0.6 0.7-1.1 1.1q-0.4 0.3-0.8 0.6-0.2-0.3-0.5-0.7 0.3-0.3 0.7-0.7c0.5-0.4 1-0.6 1.4-0.8 0.4-0.1 0.7-0.1 0.7-0.1z"/><path class="j" d="m189.4 245.3c0 0-0.2 0.2-0.4 0.5-0.3 0.4-0.7 0.8-1.2 1.2q-0.4 0.4-0.8 0.7-0.3-0.3-0.6-0.5 0.3-0.5 0.8-0.9c0.5-0.5 1.1-0.7 1.5-0.9 0.4-0.1 0.7-0.1 0.7-0.1z"/><path class="s" d="m188.3 239.3c-0.6-0.1-1.3-0.2-2-0.1-0.6 0.1-1.2 0.4-1.8 0.6-0.7 0.3-1.4 0.6-2 1q-0.1 0.1-0.2 0.3c-0.3-0.5-0.4-0.8-0.4-0.8 1.4-1.6 4.6-2.5 4.6-2.5 0.7 0.4 1.3 0.9 1.8 1.5z"/><path class="i" d="m185.8 257.1l-4.9-0.4-5.6 12.9q0 0 0 0c-0.5-0.3-16.1-7.3-19.9-9v13.5c3.7 2.2 7.1 3.4 7.1 3.4 0 0 4 2.1 8.7 3.9 5 2 9.8 3.2 11.6 1.8 3.6-2.7 5.9-25.9 5.9-25.9z"/><path class="r" d="m188.7 257.3c0 0-2.3 23.2-5.9 25.9-1.8 1.4-6.6 0.2-11.6-1.8 3.5 0.2 9.3 0.3 10-0.2 1-0.8 4.6-24.1 4.6-24.1z"/><path class="s" d="m155.4 260.6v2.5c3.8 1.4 19.4 6.3 19.9 6.5-0.5-0.3-16.1-7.3-19.9-9z"/><path class="c" d="m190 253.5c0 0.6-2.7 30.2-7.8 31.4-3.7 0.9-16.7-4.7-23.8-8-2.9-1.3-4.8-2.2-4.8-2.2l-1.5-11.1 3.4-3.1 0.6-0.6q0.1 0.1 0.1 0.1c1 0.4 17.6 7.1 18.5 7.9 0 0 5.5-15.3 5.9-15.5 0.2-0.1 1.5-0.1 3.1 0 2.7 0.2 6.3 0.7 6.3 1.1z"/><path class="c" d="m129.5 313.8c-0.4 0.6-4.6 0.9-9.6 0.7-7.4-0.2-16.7-1.5-18.3-4.4q-0.1-0.2-0.2-0.5c-1.2-5.4 9.2-37.8 12-42 2.9-4.1 7.4-6.7 7.4-6.7l1.6 3.3 1.7 3.6-3.1 19.9-3.6 12.1c0 0 1.9 0.5 4.1 1.3 3.3 1 7.3 2.4 7.8 2.8 0.9 0.7 0.2 9.9 0.2 9.9z"/><path class="G" d="m115.7 424.4c0 0 5.7 4.2 7.3 4.4 1.6 0.1 9.8-2.1 9.8-3.2 0-0.4-0.1-1.7-0.4-3.4-0.5-3-1.2-7-1.5-7.5-0.6-0.8 0-5.8 0-5.8 0 0-8.6-2-9.7-1.6-1 0.3-3.7 10.3-5 14.9-0.3 1.3-0.5 2.2-0.5 2.2z"/><path class="m" d="m115.7 424.4c0 0 5.7 4.2 7.3 4.4 1.6 0.1 9.8-2.1 9.8-3.2 0-0.4-0.1-1.7-0.4-3.4-2.7 1.1-8.4 3.3-10.3 2.6-1.3-0.5-3.8-1.6-5.9-2.6-0.3 1.3-0.5 2.2-0.5 2.2z"/><path class="m" d="m123 416.1q0 0-0.1 0c-0.2 0.1-0.5 0.4-0.3 0.7 0.1 0.2 0.2 0.2 0.4 0.3 0.5 0.3 1.1 0.4 1.7 0.5 0.6 0 1.3 0.1 1.9-0.1 0.6-0.3 0.5-1-0.1-1.3-1-0.5-2.4-0.6-3.5-0.1z"/><path class="m" d="m123 418.5q0 0-0.1 0c-0.2 0.1-0.5 0.4-0.3 0.7 0.1 0.1 0.2 0.2 0.4 0.3 0.5 0.3 1.1 0.4 1.7 0.4 0.6 0.1 1.3 0.2 1.9-0.1 0.6-0.2 0.5-0.9-0.1-1.2-1-0.5-2.4-0.6-3.5-0.1z"/><path class="m" d="m122.8 420.6q-0.1 0-0.1 0.1c-0.2 0.1-0.5 0.3-0.3 0.6 0.1 0.2 0.2 0.3 0.4 0.4 0.5 0.2 1.1 0.3 1.7 0.4 0.6 0.1 1.3 0.2 1.9-0.1 0.6-0.2 0.5-1-0.1-1.2-1-0.5-2.5-0.6-3.5-0.2z"/><path class="G" d="m171 423.1c-0.1-0.4-0.3-1-0.9-1.3-1.7-0.7-8.1-3.2-9.8-4.6-1.3-1-2.5-3.4-3-4.4l-11.7 0.6c-0.7 3.2-1.1 9.2-1.2 10.5z"/><path class="m" d="m171.1 425.9l-26.6 0.7-0.1-2.7 26.6-0.8z"/><path class="m" d="m158.1 418.1q0 0 0 0.1c-0.2 0.2-0.2 0.6 0.1 0.7 0.1 0.1 0.3 0.1 0.5 0 0.6-0.1 1.1-0.4 1.6-0.7 0.5-0.3 1.1-0.7 1.5-1.3 0.3-0.6-0.2-1.1-0.8-0.9-1.1 0.2-2.3 1-2.9 2.1z"/><path class="m" d="m160.1 419.5q0 0 0 0.1c-0.1 0.2-0.2 0.6 0.1 0.7 0.2 0.1 0.3 0.1 0.5 0 0.6-0.1 1.1-0.4 1.6-0.7 0.6-0.3 1.2-0.7 1.5-1.3 0.4-0.5-0.2-1.1-0.8-0.9-1.1 0.2-2.3 1.1-2.9 2.1z"/><path class="m" d="m162.6 420.4q0 0 0 0.1c-0.1 0.2-0.2 0.6 0.1 0.7 0.2 0.1 0.3 0.1 0.5 0 0.6-0.1 1.1-0.4 1.6-0.7 0.6-0.3 1.1-0.7 1.5-1.3 0.4-0.5-0.2-1.1-0.8-0.9-1.1 0.2-2.3 1.1-2.9 2.1z"/><path class="o" d="m115.7 412.6q0.3 0.1 0.6 0.2c9.9 3.8 18.8 1.3 18.8 1.3l1.3-47.2 6.2-36.7 0.4-2.3 0.1 2.3 1.6 35.1-3 49.8q0.9 0.3 1.8 0.6c8.4 2.6 19.2-0.7 19.2-0.7 0 0-1.2-43.7-1-46.9 0.1-2.1-1.2-24.4-2.2-39.7-0.5-8.3-1-14.6-1-14.6l-36.5 0.1 0.1 12.6-0.9 38.8c0 0-6.3 47-5.5 47.3z"/><path class="n" d="m122 313.8l0.1 12.7c7.8 2.5 14.7 3.5 20.5 3.7l0.4-2.3 0.1 2.3c7.3 0.2 12.9-0.9 16.4-1.8-0.5-8.3-1-14.6-1-14.6z"/><path class="n" d="m141.7 415.1q0.9 0.3 1.8 0.6l3.5-50.4-3.4-42.3-0.6 4.9 0.1 2.3 1.6 35.1z"/><path class="n" d="m115.7 412.6q0.3 0.1 0.6 0.2l7.4-47.5 0.5-51.5h-2.2l0.1 12.7-0.9 38.8c0 0-6.3 47-5.5 47.3z"/><path class="c" d="m161.3 317.4c-1.2 2.7-15.4 4.6-20.6 4.6-5.1 0-19.7-2.6-20.8-4.5-0.4-0.7-0.3-1.8 0-3 0.6-2.5 2.1-5.6 2.1-5.6-0.2-2.1-0.3-4.8-0.5-7.8-0.2-4.1-0.4-8.7-0.5-13.4-0.3-8-0.5-16.1-0.4-21.3 0-2.9 0-4.9 0.2-5.5 0 0 5.3-2.4 8.4-3q0.3-0.1 0.7-0.2l18.1-0.7c0 0 0.5 0.1 1.3 0.4q0 0 0 0c1.8 0.6 4.9 1.6 6.8 2.5q0.1 0.1 0.1 0.1c0.8 0.4 1.4 0.7 1.5 1q0.1 0.1 0.1 0.7c0.3 2 0.5 8 0.6 15.2 0.2 11.3 0.2 25.7-0.2 32.7 0.7 1.4 3.9 6.2 3.1 7.8z"/><path class="s" d="m131.7 242.8c-1.9-0.2-3.3-1.4-4-2.4q-0.3-0.3-0.4-0.6c-0.6-1-0.7-4.6 0.7-5.4 1-0.5 1.7 0.3 2.1 0.9q0 0 0 0c0.1 0.2 0.2 0.4 0.2 0.4z"/><path class="i" d="m131.7 242.8c-1.9-0.2-3.3-1.4-4-2.4q-0.1-0.1-0.2-0.3c-0.5-1-0.7-4.5 0.8-5.3 0.8-0.5 1.4 0 1.8 0.5q0 0 0 0c0.1 0.2 0.2 0.4 0.2 0.4z"/><path class="r" d="m127.6 237.2c-0.1 0.3-0.1 0.6 0 0.9 0.4 1.2 1.5 2.1 2.6 3-0.3-0.6-0.4-1.3-0.3-1.9 0-0.2 0-0.4 0.1-0.7 0-0.9-2-2.9-2.4-1.3z"/><path class="j" d="m130.8 241.4q0 0-0.1 0 0-0.1-0.1-0.1c-0.2-0.1-0.4-0.3-0.6-0.6-0.2-0.2-0.3-0.5-0.4-0.9-0.1-0.4-0.1-0.8 0.1-1.3q0.1 0 0.1-0.1 0-0.1 0-0.1v0.1-0.1q0 0.1 0 0v-0.1q-0.1 0-0.1-0.1-0.2-0.3-0.3-0.5-0.2-0.2-0.4-0.4-0.2-0.2-0.3-0.3-0.2-0.2-0.4-0.2-0.2 0-0.3 0-0.1 0.1-0.1 0.2-0.1 0-0.1 0 0 0 0 0 0.1-0.1 0.2-0.2 0.1-0.1 0.3-0.1 0.3 0 0.5 0.1 0.2 0.2 0.4 0.4 0.2 0.1 0.4 0.4 0.3 0.2 0.4 0.5 0.1 0 0.1 0.1l0.1 0.1v0.1l0.1 0.1q-0.1 0-0.1 0v0.1q-0.1 0.1-0.1 0.2c-0.2 0.3-0.2 0.7-0.2 1.1q0.1 0.5 0.3 0.9 0.2 0.3 0.4 0.5 0.1 0.1 0.1 0.2 0.1 0 0.1 0z"/><path class="s" d="m147.8 242.8c2-0.2 3.3-1.4 4.1-2.4q0.2-0.3 0.4-0.6c0.5-1 0.7-4.6-0.8-5.4-1-0.5-1.7 0.3-2 0.9q0 0 0 0c-0.2 0.2-0.2 0.4-0.2 0.4z"/><path class="i" d="m147.8 242.8c2-0.2 3.3-1.4 4.1-2.4q0.1-0.1 0.2-0.3c0.5-1 0.6-4.5-0.8-5.3-0.8-0.5-1.4 0-1.8 0.5q0 0 0 0c-0.2 0.2-0.2 0.4-0.2 0.4z"/><path class="r" d="m152 237.2c0.1 0.3 0 0.6-0.1 0.9-0.3 1.2-1.5 2.1-2.6 2.9 0.3-0.5 0.5-1.2 0.4-1.8 0-0.2-0.1-0.5-0.1-0.7 0-0.9 2-2.9 2.4-1.3z"/><path class="j" d="m148.8 241.4q0 0 0 0 0.1-0.1 0.2-0.2c0.1-0.1 0.4-0.2 0.5-0.5 0.2-0.2 0.4-0.5 0.5-0.9 0.1-0.4 0-0.8-0.2-1.3q0 0 0-0.1l-0.1-0.1q0 0 0 0 0 0 0 0l0.1-0.1q0 0 0.1-0.1 0.1-0.3 0.3-0.5 0.2-0.2 0.3-0.4 0.2-0.2 0.4-0.4 0.2-0.1 0.3-0.1 0.2 0 0.4 0 0.1 0.1 0.1 0.2 0 0 0 0 0 0 0-0.1 0 0-0.1-0.1-0.1-0.1-0.4-0.1-0.2 0-0.4 0.1-0.3 0.2-0.5 0.3-0.2 0.2-0.4 0.5-0.2 0.2-0.4 0.5 0 0-0.1 0.1v0.1l-0.1 0.1q0 0.1 0 0.1l0.1 0.1q0 0.1 0.1 0.1c0.1 0.4 0.2 0.8 0.2 1.2q-0.1 0.5-0.3 0.9-0.3 0.3-0.4 0.5-0.1 0.1-0.2 0.1 0 0.1 0 0.1z"/><path class="i" d="m148.4 258.8l-0.3 0.4-2 3.2q-1.5 0.6-3.1 0.9l-2.8-3.1-1.9 3.1c-1.9-0.3-3.8-1.1-5.4-2.3-0.7-0.7-1.3-1.4-1.8-1.9q-0.3-0.3-0.5-0.6l4-2.1 0.8-0.4 0.6-0.1h0.2l6.6-0.2h0.5l0.5 0.3 0.4 0.2z"/><path class="r" d="m141.4 253.5c-1.9 0.3-3.8 0-5.5-0.9 0.1-2.2 0.1-4.9 0.1-4.9l7.4 0.1c0 0-0.2 2.4 0 4.6-0.5 0.6-1.4 0.9-2 1.1z"/><path class="i" d="m142.7 258.1c0.8-0.6 1.2-1.4 1.7-2.2q0 0 0 0c-0.6-0.5-0.9-2-1-3.5-0.5 0.6-1.4 0.9-2 1.1-1.9 0.3-3.8 0-5.5-0.9 0 1.2-0.1 2.3-0.3 2.7 0 0.2-0.4 0.6-1.1 1 1.3 1.4 2.7 2.6 4.4 3 1.3 0.3 2.6-0.3 3.8-1.2z"/><path class="s" d="m148.6 258.5l-0.2 0.3-0.3 0.4c-1.6-0.9-3.2-1.9-4.2-2.5q-0.2-0.2-0.4-0.3-0.2-0.1-0.3-0.1-0.2-0.2-0.4-0.6c-0.2-0.6-0.4-1.5-0.4-2.5v-0.1c-0.1-0.9-0.1-1.9-0.1-2.8v-0.3c0-0.9 0-1.7 0-2.2h1.1q0 0-0.1 0.2 0 0.1 0 0.2 0 0.1 0 0.1 0 0.5 0 1.3v0.7q0 0.3 0 0.6v0.1q0 0.3 0.1 0.6 0 0 0 0.1 0 0.3 0 0.6 0 0 0 0.1 0 0.1 0 0.1 0 0 0 0 0 0.1 0 0.2 0 0 0 0.1 0 0 0 0 0.1 0 0.1 0.1 0 0.1 0 0.2 0 0 0 0 0 0.2 0 0.3 0 0.1 0.1 0.3 0 0 0 0.1 0 0 0 0.1 0 0.1 0.1 0.3 0 0 0 0.1 0 0 0 0.1 0.1 0.2 0.1 0.4 0 0.1 0 0.1 0.1 0 0.1 0.1 0 0 0 0.1 0.1 0.2 0.2 0.3 0 0.1 0 0.1 0 0.1 0.1 0.1 0 0 0 0.1 0 0 0.1 0.1 0 0 0 0 0.1 0.1 0.1 0.1 0 0 0 0c0.7 0.6 2.4 1.6 4.2 2.6z"/><path class="s" d="m136.6 250.2c0 0.8 0 1.8-0.1 2.7-0.1 1.2-0.2 2.2-0.4 2.9q-0.1 0.1-0.1 0.1-0.1 0.2-0.1 0.3-0.3 0.2-0.8 0.6 0 0 0 0c-1 0.7-2.5 1.5-4 2.3q-0.3-0.3-0.5-0.6-0.1 0-0.1 0c2.2-1.3 4.5-2.6 5.1-3.2q0-0.1 0.1-0.1 0-0.1 0-0.1 0 0 0-0.1 0 0 0 0 0-0.1 0-0.1 0-0.1 0-0.1 0 0 0-0.1 0.1-0.2 0.1-0.5 0-0.1 0-0.3 0-0.1 0-0.1 0.1-0.2 0.1-0.3 0-0.2 0-0.3 0-0.2 0-0.4 0-0.1 0-0.1v-0.1q0-0.1 0-0.2 0-0.1 0-0.2 0-0.2 0-0.3 0.1-0.2 0.1-0.4 0-0.1 0-0.2 0-0.1 0-0.2 0-0.1 0-0.2 0-0.1 0-0.3 0-0.1 0-0.1v-0.2q0-0.1 0-0.2 0-0.1 0-0.1 0-0.1 0-0.1 0-0.3 0-0.5v-0.1q0-0.3 0-0.6v-0.1c0-0.6 0-0.9 0-0.9h0.5c0 0.5 0.1 1.1 0.1 1.9q0 0.3 0 0.6z"/><path class="i" d="m148.8 238.3c0 0-1.5 8.2-3.3 10.2-1.8 2-5.9 2.4-5.9 2.4 0 0-4.1-0.4-5.8-2.4-1.8-2-3.1-10.2-3.1-10.2-0.2-0.6-0.4-1.5-0.4-2.3v-0.1c-0.2-2.2 0-4.7 0-4.7 0 0 0-4.7 2.3-6.7 0.9-0.9 2.4-1 3.7-0.9q3.3 0.4 6.7 0c1.3-0.1 2.7 0 3.7 0.9 1.1 1 1.7 2.7 2 4.1 0.3 1.4 0.3 2.6 0.3 2.6 0 0 0.6 4.7-0.2 7.1z"/><path class="H" d="m145.4 247.7c-2.3 3.8-8.7 3-11.3 0.4-3.9-6.2-3.7-14.7-2.4-22.6-1.4 2.3-1.4 5.7-1.4 5.7 0 0-0.4 4.7 0.4 7.1 0 0 1.3 8.2 3.1 10.2 1.7 2 5.8 2.4 5.8 2.4 0 0 4.1-0.4 5.9-2.4 1.8-2 3.3-10.2 3.3-10.2 0.6-1.6 0.5-4.4 0.3-5.9-0.4 5-0.7 10-3.7 15.3z"/><path class="r" d="m134.6 240.2c-0.1 0.4-1.3 0.4-2.5-0.1-1.3-0.5-2.2-1.2-2-1.6 0.1-0.4 1.3-0.4 2.5 0.1 1.3 0.5 2.2 1.2 2 1.6z"/><path class="r" d="m149.7 238.4c0.2 0.4-0.7 1.2-1.9 1.7-1.2 0.5-2.4 0.6-2.5 0.2-0.2-0.4 0.7-1.2 1.9-1.7 1.2-0.5 2.4-0.6 2.5-0.2z"/><path class="I" d="m147.1 231.4c0 0-4.2-3.4-5.4-1.7-0.7 1 0 1.5 0 1.5z"/><path class="r" d="m141.8 239.3c-1.1 0.9-2.7 1-3.9 0.3 0.2 1 1.1 1.8 2.1 1.7 0.9-0.1 1.7-1 1.8-2z"/><path class="k" d="m139.7 241c-0.3 0-0.6-0.1-0.8-0.3-0.3-0.1-0.6-0.4-0.6-0.7-0.1-0.3 0-0.6 0.3-0.7q0.3-0.2 0.6-0.3 0.1 0 0.2 0 0-0.1 0-0.3c0-0.5-0.1-1.2-0.2-1.9-0.4-1.4-1-2.5-1-2.6 0 0.2 0.1 1.4 0.4 2.7 0.1 0.7 0.3 1.3 0.4 1.8q-0.3-0.1-0.7 0.1-0.3 0.1-0.5 0.5c-0.1 0.2-0.2 0.5-0.1 0.8 0.1 0.6 0.6 0.9 0.9 1.1 0.4 0.1 0.8 0.2 1.1 0.1 0.3 0 0.5-0.1 0.7-0.1q0.1-0.1 0.2-0.2c-0.1 0.1-0.4 0.1-0.9 0z"/><path class="m" d="m143.7 242.3c0 0-3 0-7.1 2.3 0 0 2.1 2.7 4.5 1.7 2.5-0.9 2.6-4 2.6-4z"/><path class="I" d="m131.8 230c0 0 5.3-1.2 5.6 0.9 0.2 1.2-0.6 1.3-0.6 1.3z"/><path class="u" d="m133.8 235.8c0 1 0.5 1.8 1.1 1.8 0.7 0 1.1-0.9 1.1-1.9 0-1-0.5-1.8-1.1-1.8-0.7 0-1.1 0.8-1.1 1.9z"/><path class="m" d="m132.7 234.8c0 0 0.4 0.6 1.1 0.8 0.7 0.3 1.4 0.1 1.4 0.1 0 0-0.4-0.6-1.1-0.9-0.7-0.2-1.4 0-1.4 0z"/><path class="u" d="m145.4 235.8c0 1-0.5 1.8-1.1 1.8-0.7 0-1.1-0.9-1.1-1.9 0-1 0.5-1.8 1.1-1.8 0.7 0 1.1 0.8 1.1 1.9z"/><path class="m" d="m146.5 234.7c0 0-0.4 0.7-1.1 0.9-0.7 0.3-1.4 0.1-1.4 0.1 0 0 0.4-0.6 1.1-0.9 0.7-0.2 1.4-0.1 1.4-0.1z"/><path class="J" d="m128.2 234.6q-0.1 0-0.1-0.1-0.1 0-0.2 0 0.1 0 0.3 0.1z"/><path class="J" d="m150.8 231.1c0 1.1 0.1 2.2-0.1 3.3-0.7 0.9-1.3 1.5-2 2.4q0.3-3.2 0-6.4-0.5-0.2-1.1-0.6c-1.5-1-3-2.3-4.8-2.8-3.5-0.8-7.3 1.7-10.6 0.4-1.2 2.7-1.8 5.6-1.8 8.5-0.7-0.6-1.5-1.1-2.3-1.4-0.3-0.3-0.6-1.8-0.7-2.1q-0.4-1.3-0.7-2.5-0.2-0.7-0.3-1.4c-0.3-1.2-0.4-2.5-0.1-3.6 0.4-1.5 1.4-2.7 2.7-3.5 1.7-1 3-0.9 4.8-0.3 2.1-3.3 6.7-3.3 10-2.4 3 0.9 5.7 3.3 6.7 6.3 0.4 1.4 0.6 3 1.2 4.3 0.3 0.6 0.7 1.1 1.3 1.5-0.7 0.3-1.4 0.4-2.2 0.3z"/><path class="I" d="m151.7 229.3q-1-0.7-1.9-1.4c-1.9-1.4-3.8-3-6-3.5-2-0.4-4 0-5.9 0.3-2 0.2-4.3 0.4-6-0.6-1.2 0.9-2.1 2.1-3.2 3.1-0.7 0.6-1.5 1.1-2.3 1.3-0.3-1.2-0.4-2.5-0.1-3.6q0.1-0.5 0.4-1c0.5-1.1 1.3-1.9 2.3-2.5 1.7-1 3-0.9 4.8-0.3 2.1-3.3 6.7-3.3 10-2.4 3 0.9 5.7 3.3 6.7 6.3q0 0.2 0.1 0.5c0.4 1.3 0.6 2.6 1.1 3.8z"/><path class="K" d="m150.6 225.5q-1-0.5-1.9-1.2c-1.9-1.5-3.7-3.4-6-4.1-2.8-1-6.2 0.2-7.9 2.7-2.6-1-5.7-0.6-8.1 1 0.5-1.1 1.3-1.9 2.3-2.5 1.7-1 3-0.9 4.8-0.3 2.1-3.3 6.7-3.3 10-2.4 3 0.9 5.7 3.3 6.7 6.3q0 0.2 0.1 0.5z"/><path class="m" d="m140.2 260.2l-1.9 3.1-0.9 1.3c-1.6-1-3.3-2.4-4.5-3.6-0.7-0.7-1.3-1.4-1.8-1.9q-0.3-0.3-0.5-0.6-0.1 0-0.1 0c-0.4-0.5-0.6-0.8-0.6-0.8l5.7-2.4 0.5 0.5 0.1 0.1 3.2 3.5z"/><path class="m" d="m149.3 257.4l-0.7 1.1-0.2 0.3-0.3 0.4-2 3.2-1.7 2.5-1.4-1.6-2.8-3.1 1-1.2 2.3-2.6 0.3-0.4 0.4-0.4z"/><path class="L" d="m123.3 300.8c-0.3-0.6-1.2-0.1-0.9 0.6 2 3.7 1.5 9.4-0.9 12.7-0.1 0.2 0.1 0.4 0.2 0.3 3.6-2.8 3.5-9.9 1.6-13.6z"/><path class="m" d="m121.1 276.7h39.3v24.7h-39.3z"/><path class="n" d="m142.6 289.3c-1 0-1.9-0.8-1.9-1.8 0-0.4 0.2-0.8 0.4-1.1q-0.2-0.1-0.4-0.1c-1.6 0-2.9 1.3-2.9 3 0 1.6 1.3 2.9 2.9 2.9 1.6 0 2.9-1.3 2.9-2.9q0-0.2 0-0.3-0.4 0.3-1 0.3z"/><path class="i" d="m145 300.7q0 0.1-0.2 0.3c-1.1 1.1-9.7 5.7-9.7 5.7 0 0-0.9 0.1-2.3 0.3-1.3 0.2-3 0.4-4.6 0.7q-0.5 0.1-1 0.2-0.2 0-0.4 0.1-0.2 0-0.5 0.1c-0.5 0.1-1.2 0.2-1.7 0.3 0.2-2 0.1-4-0.4-5.9 0.8-0.7 2.1-1.5 2.8-2.1 1.7-1.4 3.2-2.2 3.9-2.2 1.2 0 6.4-1.9 6.3-1.3-0.1 0.6-0.6 1.7-1.5 2-0.9 0.2-4.2 1.4-4.5 2.5-0.4 1.1 6.7 1.1 7.8 0.5 1-0.6 5.8-1.7 6-1.2z"/><path class="M" d="m115.6 268.4c1.2-3.2 13.6-10.5 13.6-10.5-3.1 0.6-8.4 3-8.4 3 0 0-4.5 2.6-7.4 6.7-2.8 4.2-13.2 36.6-12 42 1.1-12.3 12.9-38 14.2-41.2z"/><path class="M" d="m179.6 271.4c-0.4 0.5-3.5-0.8-3.5-0.8 0 0-1.3 2.8-1.8 2.7-0.4-0.2 0.3-2.9 0.3-2.9-0.3-0.3-9.5-5-16.8-8.7q-1.2-0.6-2.3-1.2c-3.4-1.7-5.9-3-6.2-3.1 1.8 0.6 4.9 1.6 6.8 2.5q0.1 0.1 0.1 0.1c1 0.4 17.6 7.1 18.5 7.9 0 0 5.5-15.3 5.9-15.5 0.2-0.1 1.5-0.1 3.1 0.1l-7 15.5c0 0 3.2 2.9 2.9 3.4z"/><path class="h" d="m116.2 224l-10.1-1.7 2.6-5z"/><path class="h" d="m117.5 227.1l-4.5 4.4-1.8-3z"/><path class="h" d="m119.5 221.1l-4.1-5.4 2.7-1.8z"/><path class="e" d="m312.9 51.6l3.5 1.9-3.5 1.9-1.9 3.6-1.9-3.6-3.6-1.9 3.6-1.9 1.9-3.5z"/><path class="c" d="m652.5 177.3l3.5 2-3.5 1.9-1.9 3.5-1.9-3.5-3.5-1.9 3.5-2 1.9-3.5z"/><path class="e" d="m585.5 53.8l3.5 2-3.5 1.9-1.9 3.5-1.9-3.5-3.5-1.9 3.5-2 1.9-3.5z"/><path class="c" d="m97.8 136.6l3.5 1.9-3.5 1.9-1.9 3.6-1.9-3.6-3.5-1.9 3.5-1.9 1.9-3.5z"/><path class="c" d="m453 36l3.6 1.9-3.6 1.9-1.9 3.6-1.9-3.6-3.5-1.9 3.5-1.9 1.9-3.5z"/><path class="B" d="m307.2 294.9c-0.1-0.9-0.2-1.7-0.5-2.5 0 0-3.1-1.3-5.3-1.1 0 0-0.1 0.3-0.2 0.9q0 0.1-0.1 0.3c-0.9 0.1-1.8 0-2.6-0.4-0.2-0.1-0.4-0.2-0.5-0.4-0.1-0.3-0.1-0.5 0-0.8 0.2-1.9-0.2-3.9-1.1-5.6q0 0-0.1-0.1c-0.2-0.4-0.4-0.7-0.8-0.9-0.4-0.2-0.9-0.2-1.2 0.1-0.2 0.2-0.3 0.6-0.3 0.9 0 1.4 0.3 2.9 0.1 4.3-0.2 1.1-0.7 2.2-1 3.3-0.7 2.7-0.6 5.6-0.3 8.4l-1.2 1.1-1.7-1.8-3.1 2.2 0.3 0.4-9.2 5.6c0 0-9.6-25.3-10.8-26.1-1.1-0.8-5.7-2.3-5.7-2.3l-1.3-0.4-0.4-0.1-1.3-0.3-3.3-0.9-5.2-1.4q-0.1-0.1-0.2-0.2c-0.6-0.7-2.8-3-2.8-3q0-0.3-0.1-0.6c-0.1-0.7-0.2-1.2-0.2-1.3-0.1-0.4 0-1.4 0-2.3 2.4 0.6 4.5 1 5.2 0.9 1.7-0.4 2.7-6.4 2.7-7 0-0.8 0.1-2 0.1-3.4q0.1 0 0.1 0c1.1-0.5 1.7-1.3 1.5-1.8-0.2-0.3-0.8-0.3-1.5-0.1 0.1-3 0.1-6.3 0.2-8.4q0.8 0.1 1.5 0 0.3-0.9 0.3-1.9 0-0.3-0.1-0.7 0-0.1 0-0.2-0.1-0.3-0.1-0.5-0.1-0.1-0.1-0.3-0.1-0.2-0.1-0.4-0.1-0.1-0.1-0.3 0 0 0 0-0.2-0.3-0.3-0.6c-1.2-2.3-3.3-5.1-5.9-5.8 0.9-0.6 1.6-1.3 2-2.2q-2-0.6-4.2-0.7c-2.7-0.1-5.3 0.5-7.8 1.3-1.6 0.6-3.3 1.4-4.2 2.8-1.6-0.6-3.7 0.5-4.6 2.1-0.9 1.5-1 3.3-0.9 5.1q0 0.8 0.1 1.6 0 0.1 0 0.3 0 0.4 0 0.8 0.1 0.3 0.1 0.6 0 0.3 0.1 0.6 0 0.7 0.1 1.3c0.2 0.9 0.5 1.9 0.8 2.8q-0.2 0-0.3 0.1c-1.6 1.2-1 5.2-0.2 6.3q0.2 0.3 0.5 0.7c0.8 0.8 2 1.6 3.5 2 0.1 0.2 0.5 0.7 1.3 1.3q0 0.9 0.1 2c0.1 1.5 0.2 3.1 0.3 4.3 0 0-2.4 1.6-3.5 2.9l-1.8 0.2-0.6 0.1-2.1 0.2-6.8 2.7c0 0-7.2 4.5-7.9 7.1-0.5 2.2-3.6 27-3.9 36.9-0.1 2 0 3.4 0.2 3.9 1.3 3.1 7.9 9.6 9.4 10.2 0.4 0.2 2.9-0.7 6.2-2.1v4.9l0.2 18.9c0 0 0.2-0.1 0.7-0.3v4.1l0.1 17.6h18.9l3.4-21.4 2.8 21.4h18.1c-0.4-6-0.8-12.9-1.2-19.2q-0.1-1.2-0.2-2.3 0.5 0.1 0.9 0.1c-0.4-6.1-0.9-12.5-1.4-18.9-0.3-4.1-0.6-8.3-1-12.3q0.8-2.3 1.3-4.6 0.3-1.2 0.5-2.3l2.2 2.3 2.1 2.4c0 0 3.2 2.6 6.9 0.8 0.9-0.5 2.4-1.7 4-3.2 3.7-3.5 8.4-8.7 10-10.5l0.3 0.4 3.8-2.5-2-2.3 1.7-1.6c1.7-0.9 3.4-2 5.1-2.9 0.6-0.3 1.3-0.7 1.8-1.2q0.4-0.1 0.7-0.3c0 0 1.3-3.5 1.1-6.8z"/><path class="b" d="m256.8 458.5c-22.9 0-41.5-2.9-41.5-6.4 0-3.5 18.6-6.4 41.5-6.4 23 0 41.5 2.9 41.5 6.4 0 3.5-18.5 6.4-41.5 6.4z"/><path class="r" d="m309.7 296.7c-0.4 0.9-1.4 1.5-2.3 1.9-1.7 0.9-3.4 2-5.1 2.9l-3.2 3.1-4-3.9-1.2-1.1 3.2-2.9c-0.4-2.8-0.4-5.7 0.3-8.4 0.3-1.1 0.8-2.1 0.9-3.3 0.3-1.4 0-2.8 0-4.3 0-0.3 0.1-0.7 0.3-0.9 0.3-0.3 0.8-0.3 1.2-0.1 0.3 0.2 0.6 0.6 0.8 0.9q0 0.1 0.1 0.2c0.9 1.6 1.3 3.6 1 5.6 0 0.2 0 0.5 0.1 0.7 0.1 0.2 0.3 0.3 0.5 0.4 1.2 0.6 2.7 0.6 4 0.3 0.5-0.2 1.1-0.3 1.7-0.2 0.7 0.3 1.1 1.2 1.3 2q0.6 2.4 0.7 4.8c0.1 0.8 0.1 1.6-0.3 2.3z"/><path class="i" d="m300.8 299.9l-3.6 2.9-3.3-3.2 3.2-2.9c-0.4-2.8-0.4-5.7 0.3-8.4 0.3-1.1 0.8-2.1 0.9-3.3 0.3-1.4 0-2.8 0-4.3 0-0.3 0.1-0.7 0.3-0.9 0.3-0.3 0.8-0.3 1.2-0.1 0.3 0.2 0.6 0.6 0.8 0.9q0 0.1 0.1 0.2c-0.3-0.1-0.6-0.2-0.8-0.1-0.7 0.1-0.6 1.1-0.5 1.8 0.3 1.6-0.3 3.2-0.8 4.8-0.8 3.1 1.3 9.6 2.2 12.6z"/><path class="j" d="m303.9 293.8c0.3 1.5 0.1 3-0.4 4.4 0.8-1.2 1.4-2.6 1.4-4.1 0-1.5-0.7-3-1.9-3.8-0.3-0.1-0.5-0.3-0.8-0.3 0.1 0.5 0.8 1.2 1.1 1.7q0.5 1 0.6 2.1z"/><path class="i" d="m309.9 297.1c-2.1 1-5 0.4-5 0.4q-0.3-0.7-0.5-1.6 0-0.4-0.1-0.8 0-0.9 0-1.8 0-0.4 0-0.9 0.1-1.1 0.2-2.1 0.1-0.5 0.2-0.9c0.1-0.7 0.2-1.3 0.3-1.8 0.1-0.6 0.2-0.9 0.2-0.9 2.1-0.2 5.3 1.1 5.3 1.1 0.3 0.8 0.4 1.6 0.5 2.5 0.2 3.3-1.1 6.8-1.1 6.8z"/><path class="j" d="m308 290.1c0 0-0.3 0.1-0.7 0.1-0.5 0.1-1 0.2-1.7 0.1q-0.6 0-1.1 0 0.1-0.5 0.2-0.9 0.4-0.1 0.9-0.1c0.7 0 1.4 0.2 1.8 0.4 0.4 0.2 0.6 0.4 0.6 0.4z"/><path class="j" d="m307.6 293c0 0-0.3 0.1-0.7 0.2-0.4 0-1 0.1-1.6 0.1q-0.5 0-1 0 0-0.4 0-0.9 0.5-0.1 1-0.1c0.6 0 1.2 0.2 1.6 0.3 0.5 0.2 0.7 0.4 0.7 0.4z"/><path class="j" d="m308 295.6c0 0-0.3 0.1-0.8 0.2-0.4 0.1-1 0.2-1.7 0.2q-0.6 0-1.1-0.1 0-0.4-0.1-0.8 0.6-0.1 1.2-0.1c0.7 0 1.4 0.1 1.8 0.3 0.4 0.2 0.7 0.3 0.7 0.3z"/><path class="s" d="m311 290.3c-0.5-0.6-1-1.1-1.6-1.5-0.5-0.3-1.2-0.5-1.8-0.7-0.7-0.2-1.5-0.4-2.3-0.5q-0.1 0-0.3 0c0.1-0.6 0.2-0.9 0.2-0.9 2.1-0.2 5.3 1.1 5.3 1.1 0.3 0.8 0.4 1.6 0.5 2.5z"/><path class="l" d="m258.7 438c-0.9 3.7-1.7 10.9-1.8 12.4l-0.1 0.7v2.5l4.4 0.1 0.9-2.7 0.3-1.2 0.8 1.2 1.9 2.7 22.3 0.4 0.1-3.2q-0.1-0.3-0.1-0.5c-0.2-0.5-0.4-0.9-0.9-1.1-1.9-1.1-9.1-4.3-11-6-1.5-1.4-2.7-4.2-3.2-5.5z"/><path class="N" d="m270.9 443q0 0-0.1 0.1c-0.1 0.3-0.2 0.7 0.1 0.9 0.2 0.1 0.4 0.1 0.6 0 0.7-0.1 1.3-0.4 1.9-0.7 0.7-0.4 1.4-0.8 1.8-1.5 0.4-0.7-0.2-1.3-0.9-1.2-1.3 0.3-2.7 1.2-3.4 2.4z"/><path class="N" d="m273.2 444.8q0 0-0.1 0.1c-0.1 0.3-0.2 0.7 0.1 0.9 0.2 0.1 0.4 0 0.6 0 0.7-0.1 1.3-0.4 1.9-0.8 0.6-0.3 1.3-0.7 1.8-1.4 0.4-0.7-0.2-1.3-0.9-1.2-1.3 0.3-2.7 1.2-3.4 2.4z"/><path class="N" d="m276 446q0 0-0.1 0.1c-0.1 0.3-0.2 0.7 0.1 0.9 0.2 0.1 0.4 0 0.6 0 0.7-0.1 1.3-0.4 1.9-0.8 0.7-0.3 1.4-0.7 1.8-1.4 0.4-0.7-0.2-1.3-0.9-1.2-1.3 0.3-2.7 1.2-3.4 2.4z"/><path class="N" d="m287.4 450.4l-24.2 0.6 1.9 2.7 22.3 0.4 0.1-3.2q-0.1-0.3-0.1-0.5z"/><path class="N" d="m256.8 451.1v2.5l4.4 0.1 0.9-2.7z"/><path class="l" d="m223.8 454c0 0 6.6 4.9 8.4 5.1 1.9 0.2 11.6-2 11.6-3.2 0-0.5-0.2-2-0.4-3.8-0.5-3.4-1.2-7.9-1.6-8.5-0.6-1 0.2-6.5 0.2-6.5 0 0-9.9-2.5-11.3-2.1-1.1 0.3-4.6 11.5-6.2 16.5-0.4 1.5-0.7 2.5-0.7 2.5z"/><path class="N" d="m223.8 454c0 0 6.6 4.9 8.4 5.1 1.9 0.2 11.6-2 11.6-3.2 0-0.5-0.2-2-0.4-3.8-3.2 1.1-10 3.4-12.2 2.5-1.5-0.5-4.3-1.9-6.7-3.1-0.4 1.5-0.7 2.5-0.7 2.5z"/><path class="N" d="m232 445.9c0.8 0.3 1.7 0.5 2.5 0.6 1 0.1 2 0.2 2.9 0 0.9-0.3 0.7-1.2-0.1-1.6-1.5-0.6-3.6-0.8-5.2-0.2q-0.1 0-0.1 0c-0.4 0.1-0.8 0.4-0.6 0.8 0.2 0.2 0.4 0.3 0.6 0.4z"/><path class="N" d="m237.2 447.8c-1.5-0.6-3.6-0.8-5.2-0.3q-0.1 0-0.1 0.1c-0.4 0.1-0.8 0.4-0.5 0.8 0.1 0.1 0.3 0.3 0.5 0.4 0.8 0.3 1.7 0.4 2.6 0.5 0.9 0.1 1.9 0.3 2.8 0 0.9-0.3 0.8-1.2-0.1-1.5z"/><path class="N" d="m236.8 450.4c-1.5-0.6-3.6-0.8-5.2-0.3q-0.1 0-0.1 0.1c-0.4 0.1-0.8 0.4-0.6 0.7 0.2 0.2 0.4 0.4 0.6 0.4 0.8 0.4 1.7 0.5 2.5 0.6 1 0.1 2 0.3 2.9 0 0.9-0.3 0.8-1.2-0.1-1.5z"/><path class="O" d="m271.4 278.1c-1.1-0.8-5.7-2.3-5.7-2.3l0.6 32.1 11.3 12.5c0 0 3.2 2.6 6.9 0.8 3.6-1.8 14.6-14.4 14.6-14.4l-7-8.6-10 6c0 0-9.5-25.3-10.7-26.1z"/><path class="O" d="m228.8 437.4l3 0.3 11 1c1.6-7.3 2.9-24.3 3.2-25.9 0.3-2.1 0.9-15.7 1-18.2q0-0.1 0.1-0.2 0-0.2 0-0.2l6.4-40.4 4.9 37.4c0 0-0.2 1.2-0.4 2.8q0 0.3 0 0.6-0.1 0.3-0.1 0.8-0.1 0.5-0.2 1.1c-0.4 3.4-0.9 7.4-0.9 8.3 0 0.4-0.7 22.5 0 33.9h17.1c0-21.8 1.1-44.9 1.3-47.3 0.1-1.3-1.1-19.9-2-35.4-0.3-3.4-0.5-6.7-0.7-9.6q0-0.4 0-0.7 0-0.1 0-0.2 0-0.2-0.1-0.4 0-1-0.1-1.9c-0.1-2-0.2-3.6-0.3-4.9-0.1-1.9-0.2-2.9-0.2-2.9h-0.2l-40.6 1.9v1 4.9l0.1 14.5 0.2 33.7c0 0-1.4 11.1-1.9 13.9q0 0.1-0.1 0.4c-0.3 3.6-0.6 24.1-0.5 31.7z"/><path class="O" d="m273.2 356c-6.7-0.9-11-4.6-13.7-8.4-3.2-4.6-4.1-9.2-4.1-9.2-2.4 3.8-5.3 6.8-8.1 9.3-5.8 5-11.6 7.3-14 8.1-0.6 0.3-1 0.4-1 0.4l-1.2 1.5-0.1-20.4 40.6-1.9h0.2c0 0 0.3 4.2 0.7 10.3q0 0.3 0 0.7c0.2 2.9 0.4 6.2 0.7 9.6z"/><path class="O" d="m256.8 404.8c0 0.4-0.7 22.5 0 33.9h2.3c-0.5-12.3 0.1-32 0.3-33.3 0.5-2.2 2.1-14.5 2.1-14.5l-8-37.1 4.9 37.4c0 0-0.2 1.2-0.4 2.8q0 0.3 0 0.6-0.1 0.3-0.1 0.8-0.1 0.5-0.2 1.1c-0.4 3.4-0.9 7.4-0.9 8.3z"/><path class="O" d="m228.8 437.4l3 0.3c-0.2-10.7-0.4-30-0.5-31.2-0.3-1.8 2.5-17.7 2.5-17.7l-0.5-33-0.1-9.1c5 0.6 9.7 0.8 14.1 1 2.8-2.5 5.7-5.5 8.1-9.3 0 0 0.9 4.6 4.1 9.1 5.4-0.2 9.8-0.7 13-1.1q0-0.4 0-0.7 0-0.1 0-0.2 0-0.2-0.1-0.4c-0.2-3-0.5-6.7-0.8-9.7-0.3-3.6-0.6-6.3-0.6-6.3l-40 8.2 0.1 20.4 0.2 33.7c0 0-1.4 11.1-1.9 13.9q0 0.1-0.1 0.4c-0.3 3.6-0.6 24.1-0.5 31.7z"/><path class="O" d="m273.3 396c-1 2.2-3 4.1-4.9 1.5-0.5-0.7-0.8-1.4-1-2.2-0.8-2.8-1.2-5.9 0.2-8.4 1-1.7 3-2.3 4.5-0.8 1.5 1.6 1.9 5.3 1.8 7.4 0 0.7-0.3 1.6-0.7 2.5z"/><path class="O" d="m240.6 399.2c-0.7 0.5-1.6 0.9-2.5 0.7-1.1-0.3-1.7-1.5-2-2.5-0.5-1.5-0.6-3-0.3-4.4 0.7-2.8 5.2-6.2 7.3-2.8 1.7 2.8 0 7.3-2.5 9z"/><path class="O" d="m273.9 353.8c-10.4-0.8-19.4-17.4-19.4-17.4-4.9 10-24.1 17.4-24.1 17.4l-0.4-53.7-3.8-26.1 6.8-2.6q0-0.1 0-0.1l2.7-0.2 2.6-0.3 4.3-0.5 8 1.5 8.8 2.3 4.6 1.2 0.3 0.1 1.4 0.4c0 0 3.9 8.5 3.7 16-0.2 6.3 2.9 37.2 4.5 62z"/><path class="O" d="m267.2 279.6c0 0 2.8 8.3 3.6 11.6 0.7 3.3 0 20.2 0 20.2l-1.4-19.6z"/><path class="O" d="m259.4 274.1l3.3 0.9c0 0 2 10.2 1.5 12.3-0.4 2.1-2 3.1-2 3.1 0 0 1.6 3.6 1.3 4.5-0.3 0.9-8.5 7.3-8.5 7.3 0 0-13.7-6.5-14.1-8.1-0.4-1.5 0.6-4.8 0.6-4.8 0 0-5.4-1-5.9-2.4-0.4-1.3-2.6-15.5-2.6-15.5l2.6-0.3 17.1 9z"/><path class="P" d="m259.4 274.1c0 0-0.6 10.9-2 18.4-0.7 4.1-1.7 7.2-3 7.2-1 0-2.9-2.2-5.1-5.3-5.8-8.3-13.6-23.3-13.6-23.3l2.6-0.3 4.3-0.5 8 1.5z"/><path class="m" d="m241 267.9c0 0-2.4 1.6-3.5 3 0 0 5.1 7.8 8.3 10.2l5.1-4.5 5 3.1c0 0-1.2-6.5-1.9-7.2-0.7-0.7-2.8-3-2.8-3z"/><path class="i" d="m241.2 269.5c0.3 0.2 9.9 5.6 9.9 5.6 0 0 0.4-3.8 0-6.1-0.1-0.8-0.2-1.3-0.2-1.4-0.1-0.9 0.1-5.1 0.1-5.1l-10.6-3.3c0 0 0.2 2.1 0.3 4.4 0.2 2.8 0.4 5.8 0.5 5.9z"/><path class="r" d="m240.7 263.6c3 1.6 9.7 5.3 10.3 5.4q0.1 0 0.1 0c-0.1-0.8-0.2-1.3-0.2-1.4-0.1-0.9 0.1-5.1 0.1-5.1l-10.6-3.3c0 0 0.2 2.1 0.3 4.4z"/><path class="i" d="m239.2 260.2c0 0 0.4 0.7 1.6 1.6q0.4 0.2 0.8 0.5c1.3 0.7 12.8 4.3 14.5 3.9 1.6-0.4 2.6-6.4 2.7-7 0.1-3.8 0.4-15.6 0.4-15.6-5.4-12.2-19.7-4.1-21.3-2.7-1.5 1.4 1.3 19.3 1.3 19.3z"/><path class="s" d="m240.8 261.8q0.4 0.2 0.8 0.5c1.3 0.7 12.8 4.3 14.5 3.9 1.6-0.4 2.6-6.4 2.7-7-0.8 2.7-1.6 6.3-2.9 6.3-1.8 0.1-13.7-3.2-15.1-3.8z"/><path class="v" d="m258.6 248.6c0 0-2.3-2.5-3.3-1.3-1 1.2-0.5 1.2-0.5 1.2z"/><path class="v" d="m242.3 247.4c0 0 4.7-3.3 5.8-1.4 0.7 1.1-0.1 1.5-0.1 1.5z"/><path class="r" d="m256.8 255.9c0.2 0.4 1.2 0.4 2.2-0.1 1.1-0.5 1.7-1.3 1.5-1.7-0.2-0.5-1.2-0.4-2.3 0.1-1 0.5-1.6 1.2-1.4 1.7z"/><path class="r" d="m242.4 254.8c-0.1 0.7 1.2 1.5 2.8 1.7 1.6 0.3 3.1-0.1 3.2-0.8 0.1-0.8-1.2-1.5-2.8-1.8-1.6-0.2-3.1 0.1-3.2 0.9z"/><path class="k" d="m247.4 258.2c1.1 1.5 3.1 2.2 4.9 1.8 0.7-0.1 1.3-0.4 1.7-0.9-1.4 0.3-2.8 0.5-4.1 0.1-0.9-0.2-1.8-0.5-2.5-1z"/><path class="r" d="m248.9 260.4c0.6 0.8 1.7 1.2 2.7 1 0.3-0.1 0.7-0.2 0.9-0.5-0.8 0.2-1.5 0.3-2.3 0.1q-0.7-0.2-1.3-0.6z"/><path class="r" d="m253.9 255.2q-1.5 0.5-3 0.7c0.3 0.5 0.9 0.9 1.6 0.9 0.7 0.1 1.4-0.1 2.1-0.2-0.3-0.4-0.6-1-0.7-1.4z"/><path class="k" d="m254.9 256.5c-1.2-1.8-1.8-3.8-2.1-5.9 0 0-0.1-0.1-0.1 0-0.2 2.1 0.4 4 1.5 5.8-0.7 0.1-1.4 0.1-2.2 0.2-0.2 0-0.2 0.3 0 0.4 0.9 0.2 1.8 0.1 2.7-0.1 0.2-0.1 0.3-0.3 0.2-0.4z"/><path class="u" d="m244.1 251.6c0.4-0.9 1.3-1.5 2.3-1.5 1-0.1 1.9 0.5 2.3 1.4-1.3-0.8-3.3-0.8-4.6 0.1z"/><path class="u" d="m254.3 251.9c0.3-0.8 1.2-1.3 2-1.3 0.9-0.1 1.8 0.5 2.1 1.2-1.2-0.6-3-0.7-4.1 0.1z"/><path class="s" d="m240.9 260.5c-2.3 0-4.1-1.2-5.1-2.2q-0.3-0.4-0.5-0.7c-0.8-1.1-1.4-5.1 0.2-6.2 1.1-0.8 2 0.1 2.5 0.6q0 0 0 0c0.2 0.3 0.3 0.5 0.3 0.5z"/><path class="i" d="m240.9 260.5c-2.3 0-4.1-1.2-5.1-2.2q-0.1-0.2-0.2-0.3c-0.8-1.1-1.4-5.2 0.2-6.3 0.9-0.6 1.7-0.2 2.2 0.3q0 0 0 0c0.2 0.3 0.3 0.5 0.3 0.5z"/><path class="r" d="m235.3 254.6c-0.1 0.4 0 0.7 0.2 1 0.6 1.3 2 2.3 3.4 3.1-0.4-0.6-0.7-1.4-0.6-2.1 0-0.3 0-0.5 0-0.8-0.1-1-2.7-3.1-3-1.2z"/><path class="j" d="m239.6 259q0 0-0.1 0 0-0.1-0.2-0.1c-0.2-0.1-0.4-0.3-0.7-0.5-0.2-0.3-0.5-0.7-0.6-1.1-0.2-0.4-0.2-0.9 0-1.4q0-0.1 0.1-0.2v-0.1q0 0 0 0 0 0 0 0l-0.1-0.1q0-0.1-0.1-0.1-0.2-0.3-0.4-0.6-0.3-0.2-0.5-0.4-0.2-0.2-0.5-0.3-0.2-0.2-0.4-0.2-0.2 0-0.4 0.1-0.1 0.1-0.1 0.2 0 0 0 0 0 0 0 0 0-0.1 0.1-0.2 0.1-0.1 0.4-0.2 0.3 0 0.6 0.1 0.2 0.1 0.5 0.3 0.3 0.2 0.6 0.4 0.2 0.3 0.5 0.6 0.1 0 0.1 0.1l0.1 0.1v0.1l0.1 0.1q0 0 0 0.1l-0.1 0.1q0 0.1-0.1 0.2c-0.1 0.4-0.1 0.8 0 1.2 0 0.4 0.2 0.8 0.4 1 0.2 0.3 0.4 0.5 0.6 0.6q0.1 0.1 0.2 0.2 0 0 0 0z"/><path  d="m234.6 243.2c0 1.6 0.1 3.5 0.4 5.2 0.3 1.3 0.6 2.5 1.1 3.6q0 0 0 0.1c0.5 0.1 2.8 1.5 2.8 1.5 2.3-3.2 2.7-7.6 2.6-11.6 1.5 1 3.3 1.5 5 1.4-0.3-0.6-0.6-1.4-0.6-2.1 1 1.8 2.8 3.1 4.8 3.7 0.8 0.3 1.9 0.4 2.7 0-1.2-0.7-2.1-1.9-2.6-3.2 2.8 2.4 6.3 4.2 9.9 3.7q0.3-0.9 0.3-1.8c-0.1-1.1-0.4-2.2-0.8-3.1-1.2-2.3-3.3-5-5.9-5.8 0.9-0.5 1.6-1.3 2-2.2q-2.1-0.6-4.2-0.7c-2.7 0-5.4 0.5-7.9 1.4-1.6 0.5-3.2 1.3-4.1 2.7-1.6-0.6-3.7 0.6-4.6 2.1-0.9 1.5-1 3.4-0.9 5.1z"/><path  d="m234.6 243.2q0 0.3 0 0.6c0.1 1.5 0.2 3.1 0.4 4.6q1.4-1.3 2.4-3 0.2 1.8 0.4 3.6c2-2.9 3.1-6.4 2.9-9.9 1.1 1 2.5 1.6 4 1.9-0.4-0.9-0.5-1.9-0.4-2.9 1.6 1.7 3.6 3.2 5.8 4.1-0.3-1.3-0.2-2.7 0.1-4.1 0.6 1.7 2.1 2.9 3.6 3.8 1.4 0.8 2.8 1.5 4.3 1.8 0.9 0.1 1.9 0.2 2.9 0-0.1-0.9-0.2-1.7-0.6-2.5q-0.1-0.3-0.2-0.6c-1.2-2.3-3.3-5-5.9-5.8 0.9-0.5 1.6-1.3 2-2.2q-2.1-0.6-4.2-0.7c-2.7 0-5.3 0.5-7.9 1.4-1.6 0.5-3.2 1.3-4.1 2.7-1.6-0.6-3.7 0.6-4.6 2.1-0.9 1.5-1 3.4-0.9 5.1z"/><path  d="m234.6 243.2q0 0.3 0 0.6c1.1-0.9 2-2 2.7-3.2q0.5 1.7 1 3.4c0.8-1.5 1-3.4 0.3-5 1.6-0.2 3-1.1 3.9-2.3q0.2 0.7 0.6 1.3 1.2-1.5 2.1-3.3c1.2 1.5 2.8 2.6 4.7 3.1q0.1-1.1 0.3-2.2c1.4 1.8 3.1 3.5 5.1 4.6 1.6 0.8 3.4 1.2 5.1 1q-0.1-0.3-0.2-0.6c-1.2-2.3-3.3-5-5.9-5.8 0.9-0.5 1.6-1.3 2-2.2q-2.1-0.6-4.2-0.7c-2.7 0-5.3 0.5-7.9 1.4-1.6 0.5-3.2 1.3-4.1 2.7-1.6-0.6-3.7 0.6-4.6 2.1-0.9 1.5-1 3.4-0.9 5.1z"/><path class="c" d="m257.4 292.5c-0.7 4.1-1.7 7.2-3 7.2-1 0-2.9-2.2-5.1-5.3l1.5-12.2-2.5-3.3 2.7-2.3 3.7 2.3-1 3z"/><path class="P" d="m246.2 327.2h23.7c4.1-10.2 4.8-19.5 4.8-25.1 0-3.2-0.3-5.2-0.3-5.2l-21.8 0.9c-0.1 16.6-6.4 29.4-6.4 29.4z"/><path class="m" d="m252.6 297.8c1.7 0.5 3.8 5.3 3.8 5.3l18.3-1 3.6-0.1c-0.6-4.6-3.9-5.1-3.9-5.1z"/><path class="i" d="m250.9 302.9c0.3-0.5 0.6-0.9 1-1.1 2.3-1.8 6-4.4 6.8-3.5 0.8 0.9-5.8 5.8-5.8 5.8l0.6 2.3 3-1.8 5-0.3c0 0 0.5 0.9 1 2q0.1 0.1 0.1 0.3 0 0 0 0 0 0 0.1 0.1 0.1 0.2 0.1 0.4c0.3 0.5 0.5 1.1 0.6 1.6q0.1 0.1 0.1 0.2 0.1 0.5 0.2 0.9 0 0.4-0.1 0.7l-3.8 1c0 0-2.2 5-2.8 5.5-0.3 0.2-6.9 1.7-6.9 1.7l-3.7-7.3 1.9-0.8c0.1-0.1 1.9-6.7 2.6-7.7z"/><path class="j" d="m262.5 306.3q0.1 0.2 0.2 0.4-0.1 0-0.1 0c-0.6 0.1-1.4 0.2-2.3 0.4-0.8 0.1-1.6 0.3-2.1 0.5q-0.2 0.1-0.4 0.2-0.1 0-0.3 0.1-0.2 0.1-0.2 0.1 0 0 0.2-0.2 0.1-0.1 0.2-0.3 0.1-0.1 0.3-0.2c0.5-0.4 1.3-0.9 2.3-1 0.8-0.2 1.6-0.1 2.2 0z"/><path class="j" d="m263.4 308.7q0.1 0.1 0.1 0.2-0.3 0-0.6 0.1c-0.6 0.1-1.4 0.2-2.3 0.3-0.8 0.2-1.6 0.4-2.1 0.6q-0.2 0.1-0.4 0.1-0.2 0.1-0.3 0.2-0.2 0.1-0.2 0.1 0 0 0.2-0.2 0.1-0.1 0.2-0.3 0.1-0.1 0.3-0.3c0.5-0.4 1.3-0.8 2.3-1 0.9-0.1 1.7-0.1 2.3 0.1q0.3 0 0.5 0.1z"/><path class="O" d="m226.2 274c0 0-7.2 4.5-7.9 7.1-0.6 2.6-5 37.7-3.7 40.8 1.2 3.2 7.9 9.6 9.3 10.2 1.5 0.6 28.1-12 28.1-12l-3.7-9.9-17.3 3.6 1.4-14.1z"/><path class="m" d="m243.4 309.3l4.7 12.9 4.6-1.7-4.7-12.5z"/><path class="c" d="m222.8 258.1l-10-4.4 4-4.6z"/><path class="c" d="m223.4 261.6l-5.9 3.5-1.1-3.6z"/><path class="c" d="m227 255.9l-2.9-6.7 3.3-1.1z"/><path class="m" d="m291.1 298.2l3.1-2.2 8.4 9.4-3.8 2.5z"/><path fill-rule="evenodd" class="B" d="m540.8 337.8q-0.2 0.1-0.3 0.2 0 0.8 0 1.5c-0.2 6.1-0.4 10.6-0.6 11.9-0.3 1.3-1.5 2-3.3 2.3l0.7 26.1h-18.6l-4.6-26.1-0.4-2.4-0.1 2.5-1.2 26h-18.5c0.5-8.5 1.2-19.3 1.8-28q0.1-2.2 0.2-4.2c-0.9-0.5-1.7-1-2.3-1.8-0.3-0.4-0.3-2.8-0.1-6.3 0.4-4.3 1-10.3 1.9-16.9 0.5-4.4 1.2-9.1 1.8-13.5-4.5 3.2-10.4 6.4-14.9 4.7-6.4-2.3-14.3-14-17.6-19.3q-0.2-0.3-0.3-0.5c-0.8-1.3-1.3-2.1-1.3-2.1l1.4-1-1.2-1.6-1.8-0.6c-0.3-0.2-0.7-0.5-1.1-1q-0.2-0.2-0.4-0.4-0.1-0.1-0.1-0.1-0.2-0.2-0.4-0.4 0-0.1 0-0.1-0.5-0.5-0.9-1 0-0.1 0-0.1-0.2-0.2-0.4-0.5c-0.7-0.9-1.3-1.8-1.4-2.4q-0.1 0-0.1 0 0-0.1 0-0.2v-0.1q0-0.1 0-0.2c0.2-0.1 2.4-4.3 2.6-4.5 0.1-0.2 0.7-0.3 1.4-0.5 0.4-0.1 0.8-0.2 1.2-0.2-1.5-2.4-4.1-6.6-4.1-6.6 0 0 0.1-0.3 0.3-0.6 0.1-0.2 0.3-0.4 0.6-0.5 0.7-0.5 9.8 9.4 9.8 9.4-0.1-2.1 0.6-4.3 1.9-6q0 0 0.1 0 0 0 0-0.1c0.1-0.1 0.3-0.2 0.4-0.2q0.1 0 0.2 0.1 0 0 0.1 0 0.3 0.3 0.5 0.7 0.2 0.5 0.3 1.1 0 0.1 0 0.3 0 0.1 0 0.2c0 0.6-0.1 1.2-0.2 1.8q0 0.1-0.1 0.3c0 0.1 0 0.2 0 0.4 0 1.3 0.3 2.6 0.7 3.9 0.2 0.6 0.1 1.3-0.1 2-0.6 1.9-2.2 3.7-2.2 3.7q0 0 0.1 0.1l2.3-1.6 2.2 2.6 10.6 12.3c0 0 11.4-14.1 13.3-16 3.4-3.3 8.6-4.6 9.7-4.9 0.6-0.3 2.6-1.3 3.6-1.5q0-0.5 0-1c0-0.7 0.1-1.2 0.1-1.3 0-0.5-0.3-1.8-0.5-2.9-1.2 0.5-2.3 0.9-3.2 1.1q-0.3 0.1-0.6 0.2h-0.1q-0.3 0.1-0.5 0.1 0 0 0 0-0.2 0-0.4 0-0.1 0-0.2-0.1 0 0 0 0-0.1 0-0.2-0.1-0.1 0-0.1-0.1-0.1 0-0.2-0.2 0 0-0.1 0-0.1-0.2-0.2-0.3 0 0-0.1-0.1-0.1-0.1-0.1-0.3-0.1 0-0.1-0.1-0.1-0.2-0.2-0.3-0.1-0.1-0.1-0.2-0.1-0.2-0.2-0.3 0-0.1 0-0.2-0.1-0.2-0.2-0.4 0 0-0.1-0.1 0-0.2-0.1-0.4 0-0.1-0.1-0.1-0.1-0.3-0.1-0.5 0 0-0.1-0.1 0-0.2-0.1-0.4 0 0 0-0.1-0.1-0.2-0.2-0.4v-0.1q-0.1-0.2-0.1-0.3 0-0.1-0.1-0.2 0-0.1 0-0.2-0.1-0.2-0.1-0.3 0 0 0 0-0.1-0.4-0.1-0.5c-0.1-0.8-0.3-1.9-0.4-3.1q-0.1-0.1-0.2-0.1c-1-0.4-1.7-1-1.5-1.5 0.1-0.3 0.7-0.4 1.4-0.3-0.3-2.6-0.7-5.6-1-7.5-1.4 0.6-3.2 0.7-4.3-0.4-0.7-0.7-1-1.7-0.8-2.7q0-0.2 0.1-0.5c0.2-0.7 0.7-1.4 1.3-1.9q-0.1-0.3-0.2-0.7-0.1-0.1-0.1-0.2 0-0.2-0.1-0.4 0-0.2 0-0.3 0-0.2 0-0.4 0-0.2 0-0.3 0 0 0 0 0-0.1 0-0.1 0-0.4 0-0.8 0.1-0.1 0.1-0.2 0-0.3 0.1-0.6 0.1-0.1 0.1-0.2 0.1-0.3 0.3-0.6 0-0.1 0.1-0.2 0.2-0.4 0.5-0.7c1.3-1.5 3.6-2.1 5.5-1.6 0.4-1.3 1.9-2.2 3.3-2.3 1.4-0.1 2.8 0.6 3.8 1.5 0-0.7 0.5-1.5 1.2-1.8 0.8-0.2 1.6 0 2.2 0.4 0.7 0.4 1.2 1 1.7 1.5 0.3-1.2 1.7-1.9 2.9-1.7 1.2 0.2 2.2 1.1 2.8 2.2 0.5 1 0.8 2.3 0.9 3.5 1.3 0.1 2.6 1 3.1 2.2q0.1 0.2 0.2 0.5 0 0.1 0 0.2 0.1 0.2 0.1 0.3 0 0.2 0 0.3 0 0.1 0 0.3v0.2q0 0.3 0 0.6 0 0 0 0-0.1 0.3-0.2 0.6 0 0.1 0 0.2-0.2 0.3-0.3 0.6-0.2 0.4-0.5 0.7 0.1 0.7 0 1.4c0 0.9-0.2 1.7-0.4 2.5q-0.2 0.9-0.5 1.7 0 0 0.1 0c1.6 0.9 1.4 4.8 0.8 6q-0.2 0.3-0.5 0.6c-0.6 0.8-1.7 1.8-3.1 2.3-0.1 0.2-0.4 0.7-1.1 1.4 0.1 0.6 0.1 1.4 0.2 2.3 0.1 1.6 0.2 3.4 0.2 4.5 0 0 4.4 2 5.1 3.4 0.9 0.2 2.5 0.7 4.6 2.3 3.3 1.5 7.3 3.6 8.3 5.3 1 1.5 5.5 8.7 9.9 16.4 4.5 7.7 8.9 15.9 9.5 19.2 0.7 4.8-11.8 12.6-17.9 16.1zm-0.5-22q0.1 2.9 0.1 5.7l3-2.5c0 0-1.4-1.4-3.1-3.2z"/><path class="b" d="m510.5 459.1c-21.8 0-39.4-2.5-39.4-5.7 0-3.2 17.6-5.8 39.4-5.8 21.7 0 39.3 2.6 39.3 5.8 0 3.2-17.6 5.7-39.3 5.7z"/><path class="G" d="m477.6 448.7c0.1-0.5 0.3-1.1 0.9-1.4 1.9-0.8 8.9-3.4 10.7-4.8 1.5-1.2 2.8-3.6 3.3-4.7l12.9 0.7c0.7 3.3 1.2 9.6 1.3 10.9z"/><path class="Q" d="m477.5 451.5l29.1 0.8 0.1-2.9-29.1-0.7z"/><path class="Q" d="m491.7 443.3q0 0.1 0 0.1c0.2 0.3 0.2 0.7-0.1 0.8-0.2 0.1-0.4 0.1-0.6 0-0.6-0.1-1.2-0.4-1.7-0.7-0.6-0.4-1.3-0.7-1.6-1.3-0.4-0.7 0.1-1.2 0.8-1 1.2 0.2 2.6 1.1 3.2 2.1z"/><path class="Q" d="m489.4 444.8q0.1 0.1 0.1 0.1c0.1 0.3 0.2 0.7-0.1 0.8-0.2 0.1-0.4 0.1-0.6 0-0.6-0.1-1.2-0.4-1.8-0.7-0.6-0.4-1.2-0.8-1.6-1.4-0.4-0.6 0.2-1.1 0.9-1 1.2 0.3 2.5 1.2 3.1 2.2z"/><path class="Q" d="m486.7 445.8q0 0 0.1 0.1c0.1 0.2 0.2 0.6-0.2 0.8-0.1 0-0.3 0-0.5 0-0.7-0.2-1.2-0.5-1.8-0.8-0.6-0.3-1.2-0.7-1.6-1.3-0.4-0.6 0.2-1.2 0.9-1 1.2 0.2 2.5 1.1 3.1 2.2z"/><path class="G" d="m538.1 450c0 0-6.3 4.4-8 4.6-1.7 0.1-10.8-2.2-10.8-3.3 0-0.4 0.2-1.9 0.5-3.6 0.5-3.2 1.3-7.4 1.7-7.9 0.5-0.9 0-6 0-6 0 0 9.3-2.2 10.6-1.8 1 0.4 4 10.9 5.4 15.6 0.4 1.5 0.6 2.4 0.6 2.4z"/><path class="Q" d="m538.1 450c0 0-6.3 4.4-8 4.6-1.7 0.1-10.8-2.2-10.8-3.3 0-0.4 0.2-1.9 0.5-3.6 2.9 1.2 9.2 3.5 11.3 2.7 1.4-0.5 4.1-1.7 6.4-2.8 0.4 1.5 0.6 2.4 0.6 2.4z"/><path class="e" d="m538.1 437.6q-0.3 0.1-0.7 0.2c-10.8 4-20.6 1.3-20.6 1.3l-1.4-49.4-6.8-38.5-0.4-2.4-0.1 2.4-1.8 36.8 3.3 52.2q-1 0.4-2 0.7c-9.2 2.7-21-0.7-21-0.7 0 0 1.4-45.8 1.1-49.3-0.1-2.2 1.3-25.5 2.4-41.6 0.6-8.7 1-15.3 1-15.3h40l-0.1 13.3 1 40.7c0 0 6.9 49.3 6.1 49.6z"/><path class="R" d="m525 395.7c-1.6 1.7-3.8 1-5-1.3-0.7-1.2-1.1-2.7-1-4.1 0-1.5 0.6-3 1.6-4 1.1-0.9 2.6-1.2 3.8-0.6 1.4 0.8 1.9 2.7 2.1 4.4 0.1 1.4 0 2.9-0.6 4.2q-0.4 0.9-0.9 1.4z"/><path class="R" d="m497.7 396.9c-1.5 1.7-3.7 1.1-4.9-1.3-0.7-1.2-1.1-2.6-1.1-4.1 0.1-1.5 0.7-3 1.7-3.9 1.1-1 2.6-1.3 3.8-0.6 1.3 0.8 1.9 2.6 2 4.3 0.1 1.4 0 2.9-0.6 4.2q-0.4 0.9-0.9 1.4z"/><path class="R" d="m531.1 334l-0.1 13.3c-8.6 2.6-16.1 3.7-22.4 3.9l-0.4-2.4-0.1 2.4c-8.1 0.2-14.2-0.9-18-1.9 0.6-8.7 1-15.3 1-15.3z"/><path class="Q" d="m530.1 441.3q0 0 0.1 0c0.2 0.1 0.5 0.4 0.3 0.7-0.1 0.2-0.2 0.3-0.4 0.3-0.6 0.3-1.2 0.4-1.9 0.5-0.7 0.1-1.4 0.2-2.1-0.1-0.6-0.2-0.5-1 0.1-1.3 1.1-0.5 2.7-0.6 3.9-0.2z"/><path class="Q" d="m530.1 443.7q0 0.1 0.1 0.1c0.2 0.1 0.5 0.4 0.3 0.7-0.1 0.2-0.2 0.2-0.4 0.3-0.6 0.3-1.2 0.4-1.9 0.5-0.7 0.1-1.4 0.1-2.1-0.1-0.6-0.3-0.5-1 0.1-1.3 1.1-0.5 2.7-0.6 3.9-0.2z"/><path class="Q" d="m530.3 446q0.1 0 0.1 0.1c0.3 0.1 0.6 0.3 0.4 0.7-0.1 0.1-0.3 0.2-0.5 0.3-0.6 0.3-1.2 0.4-1.8 0.5-0.7 0-1.5 0.1-2.1-0.1-0.7-0.3-0.6-1.1 0.1-1.3 1.1-0.5 2.7-0.7 3.8-0.2z"/><path class="S" d="m509.6 440.2q-1 0.4-2 0.7l-3.9-52.9 3.8-44.4 0.7 5.2-0.1 2.4-1.8 36.8z"/><path class="R" d="m538.1 437.6q-0.3 0.1-0.7 0.2l-8.1-49.8-0.6-54h2.4l-0.1 13.3 1 40.7c0 0 6.9 49.3 6.1 49.6z"/><path class="i" d="m452.2 267.8c0 0 2.6 4.3 4.1 6.6-0.9 0.2-2.4 0.5-2.5 0.7-0.2 0.3-2.5 4.4-2.6 4.6-0.4 0.5 1.9 3.7 3.6 5.4 0.5 0.5 0.9 0.9 1.1 1l1.9 0.6 3.7 5.2c0 0 1-0.4 2.2-1.2q0.2-0.2 0.5-0.4c0.4-0.4 0.9-0.8 1.3-1.4q0.5-0.6 0.8-1.4c0.1-0.3-1.7-3.1-1.7-3.1 0 0 2.9-3.4 2.2-5.8-0.4-1.4-0.8-2.8-0.6-4.3 0.1-0.7 0.2-1.5 0.2-2.2 0-0.8-0.2-1.6-0.8-2.1q-0.1-0.1-0.2-0.1c-0.2-0.1-0.4 0.1-0.5 0.2q0 0.1 0 0.1c-1.3 1.7-2 3.8-2 6 0 0-9.1-9.9-9.8-9.5q-0.4 0.2-0.6 0.5c-0.2 0.4-0.3 0.6-0.3 0.6z"/><path class="s" d="m464.9 270.1q0.1 0.2 0.2 0.5c0.4 1.2 0.1 2.5 0.1 3.8 0 1.8 0.7 3.5 0.4 5.2-0.3 1.5-1.2 2.8-2 4-0.2 0.4-0.5 0.9-0.4 1.3 0 0.4 0.2 0.7 0.4 1.1 0.6 0.9 1.3 1.9 1.9 2.9q0.5-0.6 0.8-1.4c0.1-0.3-1.7-3.1-1.7-3.1 0 0 2.9-3.4 2.2-5.8-0.4-1.4-0.8-2.8-0.6-4.3 0.1-0.7 0.2-1.5 0.2-2.2 0-0.8-0.2-1.6-0.8-2.1q-0.1-0.1-0.2-0.1c-0.2-0.1-0.4 0.1-0.5 0.2z"/><path class="s" d="m451.6 281c0.7 1.2 2.1 3 3.2 4.1 0.3-0.3 0.7-0.7 1.1-1.1q0.1-0.1 0.2-0.2 0.2-0.2 0.4-0.3 0.3-0.4 0.6-0.7 0.1-0.1 0.1-0.2 0.1 0 0.1 0 0.2-0.2 0.4-0.5 0.4-0.4 0.8-0.9 0.1-0.1 0.2-0.2 0 0 0.1-0.1 0.2-0.2 0.4-0.5 0.1 0 0.1-0.1c0.4-0.5 0.7-1 0.7-1.2 0.1-1.1-3.7-4.7-3.7-4.7q0 0 0 0c-0.9 0.2-2.4 0.5-2.5 0.7-0.2 0.3-2.5 4.4-2.6 4.6-0.2 0.2 0 0.6 0.4 1.3z"/><path class="j" d="m455.5 277.4c0 0 0.2 0.3 0.5 0.8 0.4 0.4 0.9 1 1.5 1.6 0.5 0.5 0.9 0.8 1.3 1.1q0.2-0.2 0.4-0.5-0.4-0.6-1.1-1.2c-0.6-0.6-1.3-1.1-1.8-1.4-0.5-0.2-0.8-0.4-0.8-0.4z"/><path class="j" d="m453.5 278.5c0 0 0.9 1.4 2.4 2.9q0.7 0.7 1.3 1.2 0.1 0 0.1 0 0.2-0.2 0.4-0.5-0.5-0.6-1.2-1.3c-1.5-1.5-3-2.3-3-2.3z"/><path class="j" d="m453.5 280.8c0 0 0.5 1.3 1.6 2.4q0.4 0.5 0.8 0.8 0.1-0.1 0.2-0.2 0.2-0.2 0.4-0.3-0.3-0.5-0.8-0.9c-1-1.1-2.2-1.8-2.2-1.8z"/><path class="e" d="m457.5 289.3c0 0 0.5 0.8 1.3 2.1q0.2 0.3 0.3 0.5c3.3 5.3 11.2 17 17.6 19.4 4.5 1.6 10.5-1.5 15-4.8 3.8-2.8 6.6-5.6 6.6-5.6l4.6-24.1q0 0-0.1 0c-0.5 0.2-6.1 1.5-9.7 4.9-2 1.9-13.4 16-13.4 16l-10.5-12.3-2.3-2.6-2.1 1.5z"/><path class="m" d="m457.5 289.3c0 0 0.5 0.8 1.3 2.1q0.2 0.3 0.3 0.5l10.1-6.5-2.3-2.6z"/><path class="P" d="m494.5 342l31.9 0.4c0 0 2.3-18.5 2-36-0.1-12.6-1.6-24.6-6.1-28.9q-0.4-0.4-0.7-0.6c-0.3-0.2-0.9-0.6-1.5-1-0.6-0.3-1.3-0.7-2-1-1.2-0.6-2.3-1.2-2.9-1.2 0 0-7.7 0.1-13.9 4v0.1c-1.2 0.9-2.2 1.8-3.1 2.8-1.7 12.4-3.7 61.4-3.7 61.4z"/><path class="u" d="m523 342.1v4l-14.7-0.1-7.9-0.1-8-0.1v-4.3l8.1 0.2 7.8 0.2z"/><path class="T" d="m508.3 341.9v4.1l-7.9-0.1v-4.2h0.1z"/><path class="i" d="m515.7 273.7c-0.2 0.2-9.7 7.2-9.7 7.2 0 0 0.2-4.3 0.3-6.6 0.1-0.7 0.1-1.2 0.1-1.3 0-0.9-0.8-4.8-0.8-4.8l9.6-4.3c0 0 0.1 1.9 0.3 4.1 0.2 2.6 0.3 5.6 0.2 5.7z"/><path class="m" d="m515.8 272.6c0 0 4.4 2 5.1 3.4l-9.8 10.6-5.1-5.7-4.4 4 0.9-7.9c0 0 2.7-1.5 3.8-1.6l0.3 3.2z"/><path class="r" d="m515.5 268c-2.7 1.9-8.5 6.2-9.1 6.3q0 0-0.1 0c0.1-0.7 0.1-1.2 0.1-1.3 0-0.9-0.8-4.8-0.8-4.8l9.6-4.3c0 0 0.1 1.9 0.3 4.1z"/><path class="i" d="m496 250.5c0 0 1.4 11.1 1.9 14.7 0.1 0.5 1.5 5.6 3.1 6.3q0.1 0 0.2 0c1.5 0.2 11.1-3.8 13-4.9q0.1-0.1 0.2-0.2 0.5-0.3 0.8-0.6c1.1-0.9 1.3-1.6 1.3-1.6 0 0 1-17.2-0.6-18.4-1.7-1.2-15.9-7.4-19.9 4.7z"/><path class="u" d="m509.9 256.5c0 1-0.6 1.9-1.3 1.9-0.6 0-1.2-0.9-1.2-1.9 0-1.1 0.6-2 1.2-2 0.7 0 1.3 0.9 1.3 2z"/><path class="m" d="m511.1 255.4c0 0-0.5 0.6-1.2 0.9-0.8 0.3-1.6 0.2-1.6 0.2 0 0 0.5-0.7 1.2-1 0.8-0.3 1.6-0.1 1.6-0.1z"/><path class="u" d="m498.2 257.2c0 0.8 0.5 1.5 1 1.5 0.5 0 0.9-0.7 0.9-1.5 0-0.8-0.4-1.5-0.9-1.5-0.5 0-1 0.7-1 1.5z"/><path class="m" d="m497.4 256.5c0 0 0.4 0.4 0.9 0.6 0.5 0.2 1.1 0.2 1.1 0.2 0 0-0.3-0.5-0.9-0.7-0.5-0.2-1.1-0.1-1.1-0.1z"/><path class="r" d="m502.3 262.5q0.1-0.5 0.3-1c0.8-0.2 1.5-0.6 2.1-1.3q0.1 0.4 0.2 0.8c0 0.3 0 0.5-0.1 0.8-0.2 0.2-0.4 0.3-0.6 0.4-0.7 0.3-1.2 0.3-1.9 0.3z"/><path class="k" d="m504.9 261.7q0 0-0.3 0.3c-0.1 0.1-0.4 0.3-0.8 0.5q-0.3 0.1-0.7 0.2c-0.2 0-0.4 0-1 0v-0.1q-0.1 0-0.1 0l0.1-0.2q0-0.1 0.1-0.3 0-0.1 0.1-0.1v-0.1-0.2q0.2-0.4 0.2-0.9c0.2-1.1 0.1-2.2 0-3q-0.2-0.6-0.3-0.9-0.1-0.3-0.1-0.3 0 0 0.2 0.3 0.1 0.3 0.4 0.8c0.3 0.8 0.5 2 0.3 3.2q-0.1 0.5-0.2 0.9-0.1 0.2-0.2 0.4c0 0 0 0.1 0 0.1 0 0 0.3 0 0.5 0q0.3 0 0.6-0.1c0.4-0.1 0.7-0.2 0.9-0.3q0.3-0.2 0.3-0.2z"/><path class="s" d="m515.2 265.8q-0.3 0.3-0.8 0.6c-1.1 0.8-11.6 5.3-13.2 5.1-1.7-0.2-3.2-5.8-3.3-6.3 1 2.4 2.2 5.8 3.3 5.7 1.8-0.2 12.7-4.4 14-5.1z"/><path class="m" d="m509.4 262.7l-7.1 1.5c0 0 1.3 3.5 4.5 2.8 3.2-0.8 2.6-4.3 2.6-4.3z"/><path class="J" d="m497.2 254.7c0 0 1.1-3 2.4-2.4 1.4 0.7 0.9 0.9 0.9 0.9z"/><path class="J" d="m512.2 253.2c0 0-4.2-3.5-5.4-1.8-0.7 1 0 1.4 0 1.4z"/><path class="r" d="m499.5 261.8c-0.2 0.5-1.1 0.5-2.1 0.1-1.1-0.3-1.7-1-1.6-1.4 0.2-0.5 1.1-0.5 2.2-0.2 1 0.4 1.7 1.1 1.5 1.5z"/><path class="r" d="m513.3 259.2c0.2 0.7-0.9 1.6-2.4 2-1.6 0.3-2.9 0.1-3.1-0.5-0.2-0.7 0.9-1.6 2.4-2 1.6-0.4 3-0.1 3.1 0.5z"/><path class="s" d="m515 264.6c2.1-0.2 3.7-1.4 4.5-2.5q0.3-0.4 0.5-0.7c0.6-1.1 0.8-5-0.8-5.9-1.1-0.7-1.9 0.3-2.3 0.9q0 0 0 0c-0.2 0.2-0.3 0.4-0.3 0.4z"/><path class="i" d="m515 264.6c2.1-0.2 3.7-1.4 4.5-2.5q0.2-0.2 0.2-0.3c0.7-1.2 0.8-5-0.8-6-0.9-0.5-1.6 0-2 0.6q0 0 0 0c-0.2 0.2-0.3 0.4-0.3 0.4z"/><path class="r" d="m519.7 258.6c0.1 0.3 0 0.6-0.1 0.9-0.4 1.3-1.7 2.3-3 3.2 0.4-0.6 0.6-1.3 0.5-2 0-0.2-0.1-0.5-0.1-0.7 0-1 2.2-3.3 2.7-1.4z"/><path class="j" d="m516 263.1q0 0 0.1 0 0.1-0.1 0.2-0.1c0.2-0.2 0.4-0.3 0.6-0.6 0.2-0.3 0.4-0.6 0.5-1 0.1-0.5 0.1-0.9-0.1-1.4q-0.1-0.1-0.1-0.2h-0.1q0 0 0 0 0 0 0 0l0.1-0.1q0-0.1 0.1-0.2 0.2-0.3 0.4-0.5 0.2-0.3 0.4-0.5 0.2-0.2 0.4-0.4 0.2-0.1 0.4-0.1 0.2 0 0.3 0 0.1 0.1 0.2 0.2 0 0 0 0 0 0 0 0 0-0.1-0.1-0.2-0.2-0.1-0.4-0.1-0.3 0-0.6 0.1-0.2 0.2-0.5 0.4-0.2 0.2-0.4 0.4-0.3 0.3-0.5 0.6 0 0-0.1 0.1v0.1l-0.1 0.1v0.1q0 0 0 0.1l0.1 0.1q0 0 0 0.1c0.2 0.4 0.3 0.8 0.2 1.2q0 0.6-0.3 1c-0.1 0.3-0.3 0.5-0.5 0.6q-0.1 0.1-0.1 0.2-0.1 0-0.1 0z"/><path class="J" d="m520.5 249.1q-0.2 0.4-0.5 0.7 0.1 0.7 0.1 1.4c-0.1 0.9-0.2 1.7-0.5 2.6q-0.2 0.8-0.5 1.6c-1.4 0.4-2.4 2-3 3.4-1-2.4-1.3-5.2-1.2-7.8-1 0.4-2.2 0.3-3.2-0.2-0.9-0.5-1.6-1.4-1.9-2.5-0.6 0.8-1.6 1.1-2.5 0.9-0.9-0.2-1.6-1-1.7-1.9-0.6 1.4-1.9 2.5-3.3 2.8-0.5 0.1-1.1 0.2-1.6-0.1-0.5-0.3-0.8-1-0.6-1.6-0.6 1.8-1.9 3.3-3.6 4.1-1.5 0.8-3.4 0.9-4.6-0.2-0.7-0.7-1-1.8-0.8-2.7q0-0.3 0.1-0.5c0.3-0.8 0.7-1.5 1.3-2-0.8-1.8-0.5-4.1 0.8-5.6 1.4-1.5 3.6-2.2 5.5-1.6 0.4-1.4 2-2.3 3.4-2.4 1.4 0 2.7 0.6 3.8 1.6-0.1-0.8 0.5-1.6 1.2-1.8 0.7-0.2 1.5 0 2.2 0.3 0.6 0.4 1.1 1 1.6 1.6 0.3-1.2 1.7-2 2.9-1.8 1.2 0.2 2.2 1.1 2.8 2.2 0.6 1.1 0.8 2.3 0.9 3.5 1.3 0.1 2.6 1 3.1 2.2 0.6 1.2 0.5 2.6-0.2 3.8z"/><path class="I" d="m521 247.7q-0.1 0.8-0.5 1.4-0.2 0.4-0.5 0.7 0.1 0.7 0.1 1.4c-0.1 0.9-0.2 1.7-0.5 2.6-1.2-0.2-2.4-1-3-2.1-0.7-1.2-0.8-2.7-0.4-4-1.2 0.8-2.8 0.9-4 0.2-1.3-0.7-2.1-2.1-2.1-3.5-0.5 1-1.7 1.6-2.8 1.4-1.1-0.2-2-1.2-2.1-2.3-0.4 0.8-0.9 1.7-1.6 2.3-0.7 0.6-1.8 1-2.6 0.6-0.9-0.4-1.4-1.3-1.6-2.2-0.1 1.3-0.9 2.5-1.7 3.6-0.8 1.2-1.9 2.4-3.4 2.6-1 0.1-2.1-0.3-2.8-1q-0.2-0.2-0.3-0.3c0.3-0.8 0.7-1.5 1.3-2-0.3-0.7-0.4-1.5-0.4-2.3 0-1.2 0.4-2.4 1.2-3.3 1.4-1.5 3.6-2.2 5.5-1.6 0.4-1.4 2-2.3 3.4-2.4 1.4 0 2.7 0.6 3.8 1.6-0.1-0.8 0.5-1.6 1.2-1.8 0.7-0.2 1.5 0 2.2 0.3 0.6 0.4 1.1 1 1.6 1.6 0.3-1.2 1.7-2 2.9-1.8 1.2 0.2 2.2 1.1 2.8 2.2 0.6 1.1 0.8 2.3 0.9 3.5 1.3 0.1 2.6 1 3.1 2.2 0.4 0.8 0.5 1.6 0.3 2.4z"/><path class="K" d="m521 247.7c-0.9-1.1-2.2-1.9-3.6-2.3-0.5-0.2-1.2-0.3-1.6 0.2-0.1-1.4-0.7-2.9-1.6-4-0.2-0.2-0.5-0.5-0.8-0.5-1-0.3-1.6 0.9-1.9 1.8-0.4-1.2-1.3-2.4-2.5-2.8-1.3-0.3-2.8 0.8-2.6 2-1-1.1-2.3-2.4-3.8-2.2-1.2 0.3-2 1.4-2.5 2.5-1.5-1.1-3.7-0.9-5.4 0-1 0.6-1.9 1.5-2.6 2.4 0-1.2 0.4-2.4 1.2-3.3 1.4-1.5 3.6-2.2 5.5-1.6 0.4-1.4 1.9-2.3 3.4-2.4 1.4 0 2.7 0.6 3.8 1.6-0.1-0.8 0.4-1.6 1.2-1.8 0.7-0.2 1.5 0 2.2 0.3 0.6 0.4 1.1 1 1.6 1.6 0.3-1.2 1.7-2 2.9-1.8 1.2 0.2 2.2 1.1 2.8 2.2 0.6 1.1 0.8 2.3 0.9 3.5 1.3 0.1 2.6 1 3.1 2.2 0.4 0.8 0.5 1.6 0.3 2.4z"/><path class="e" d="m520.1 275.9c0 0-4.4 68.9-3.1 71.6 1.3 2.7 16.4 6.3 17.3 1.3 0.9-4.9 1.8-58.8-4.3-66.1-6.1-7.2-9.9-6.8-9.9-6.8z"/><path class="e" d="m488 343.3c1.9 2.4 6.9 3.1 6.9 3.1l8-69.6q0 0-0.1 0c-1.3 0.4-4.3 2.3-6 4.1-0.7 0.6-1.1 1.2-1.3 1.7-0.4 0.9-2.1 11.6-3.8 23.9-2.4 16.4-4.7 35.4-3.7 36.8z"/><path class="U" d="m506.2 280.5l2.4 2.8-1.2 3.1 2.1 39.2-6.1 6-4.3-8.5 5.3-37.3-1-2.8z"/><path class="R" d="m495.6 283.7c0.1-0.2 0.4 0 0.4 0.2-0.5 3.3-1.5 6.5-2 9.8-0.5 3.3-0.4 6.6-1 9.9-0.1 0.3-0.7 0.3-0.7 0-1.1-6 0.6-14.5 3.3-19.9z"/><path class="i" d="m513.1 334.1c0.5 1 6.9-3.3 6.9-3.3l1.7 1.2-2.5 2.1-1.7 4.3c0 0 0.6 0.7 1.5 1.5q0.1 0.1 0.3 0.3c0.5 0.4 1 0.9 1.5 1.2q0.1 0.1 0.2 0.1 0.4 0.3 0.7 0.5 0.3 0.2 0.6 0.1l2.1-3c0 0 5-0.4 5.7-0.9 0.2-0.1 0.7-1.4 1.3-2.8 0.3-0.7 1.3-3.3 1.5-4l-2.2-2.5-4.2-0.3c-0.5-0.1-1.1-0.1-1.9-0.2q-0.5 0-1.1-0.1c-1.4 0-2.9 0.1-4.1 0.4q-0.7 0.1-1.2 0.5c-2.3 1.5-5.6 4-5.1 4.9z"/><path class="j" d="m520.8 341.4q0.1 0.1 0.2 0.2 0.1-0.3 0.2-0.6c0.3-0.5 0.6-1.1 1-1.8 0.4-0.7 0.8-1.3 1.1-1.8q0.2-0.1 0.3-0.3 0.1-0.1 0.2-0.2 0.2-0.1 0.2-0.1 0 0-0.3 0.1-0.1 0-0.3 0.1-0.1 0.1-0.3 0.2c-0.5 0.3-1.2 0.9-1.6 1.7-0.4 0.7-0.6 1.5-0.6 2q-0.1 0.3-0.1 0.5z"/><path class="j" d="m519 339.9q0.1 0.1 0.3 0.3 0-0.1 0-0.1c0.3-0.5 0.6-1.2 1-1.9 0.4-0.7 0.8-1.3 1.1-1.7q0.2-0.2 0.3-0.3 0.1-0.1 0.2-0.2 0.1-0.2 0.1-0.2 0 0-0.2 0.1-0.1 0.1-0.3 0.1-0.1 0.1-0.3 0.2c-0.5 0.4-1.2 1-1.6 1.7-0.4 0.7-0.6 1.4-0.6 2z"/><path class="e" d="m520.9 297.4l16.9 19-8.8 7.5-3.2 2.7 5 8.5 1.1 2c0 0 1.3-0.7 3.3-1.8 6.2-3.5 18.7-11.3 17.9-16.2-1-6.4-17.5-32.5-19.3-35.5-1.9-3-12.6-7.2-12.9-7.3q0 0 0 0c0 0 0 21.1 0 21.1z"/><path class="R" d="m528.5 285.8c0 0-2.6 5-3.1 7.9-0.5 3 2.3 10.4 2.3 10.4l12.9 12.4-11.6 7.4 8.8-7.5c0 0-11.5-11.8-12-12.3-0.5-0.5-2.2-8.9-1.8-10.8 0.3-1.8 4.5-7.5 4.5-7.5z"/><path class="m" d="m525.8 326.6l5 8.5 1.1 2c0 0 1.3-0.7 3.3-1.8l-6.2-11.4z"/></svg>